<svg xmlns="http://www.w3.org/2000/svg" xmlns:xlink="http://www.w3.org/1999/xlink" version="1.1" width="125px" height="175px" viewBox="-5 -5 25 35">
	<rect x="-5" y="-5" width="100%" height="100%" fill="#fff"/>
	<line style="fill:none; stroke:#000; stroke-width:0.15" x1="7.5" y1="2.5" x2="2.5" y2="12.5"/>
	<line style="fill:none; stroke:#000; stroke-width:0.15" x1="7.5" y1="2.5" x2="12.5" y2="12.5"/>
	<line style="fill:none; stroke:#000; stroke-width:0.15" x1="2.5" y1="12.5" x2="2.5" y2="22.5"/>
	<defs id="vertexLibrary">
		<circle id="vertexCircle" style="fill:#ccf; stroke:#4040ff; stroke-width:0.2" cx="0" cy="0" r="2.5"/>
		<rect id="vertexSquare" style="fill:#ccc; stroke:#404040; stroke-width:0.2" x="-2.5" y="-2.5" width="5" height="5"/>
		<g id="imply">
			<use xlink:href="#vertexCircle"/>
			<g fill="#000" transform="scale(0.21) translate(-9,-9)">
				<svg style="display:block" width="17" height="18" viewBox="0 0 17 18">
					<path d="M10.574 11.54a.345.345 0 0 1-.352-.351c0-.367 1.054-1.131 1.757-1.833H3.668a.367.367 0 0 1-.351-.352c0-.198.168-.351.351-.351h8.311c-.733-.749-1.757-1.497-1.757-1.849 0-.214.168-.351.352-.351a.35.35 0 0 1 .275.137c.809.963 1.818 1.834 3.07 2.063.169.03.291.168.291.351a.343.343 0 0 1-.291.336c-1.252.229-2.261 1.1-3.07 2.063a.35.35 0 0 1-.275.137z"/>
				</svg>
			</g>
		</g>
		<g id="nece">
			<use xlink:href="#vertexCircle"/>
			<g fill="#000" transform="scale(0.21) translate(-8.5,-9)">
				<svg style="display:block" width="16" height="18" viewBox="0 0 16 18">
					<path d="M13.303 14.13V4.062H3.235V14.13zm-10.42.702a.345.345 0 0 1-.351-.351V3.711c0-.199.153-.351.351-.351h10.771c.214 0 .352.152.352.351v10.77a.337.337 0 0 1-.352.351z"/>
				</svg>
			</g>
		</g>
		<g id="var_p" fill="#000">
			<g transform="scale(0.21) translate(0,-8) matrix(10,0,0,10,0,13)">
				<path transform="scale(0.001,-0.001)" d="M378.9,21.4 c56.5,0 129.9,50.4 181.8,157.4 27.5,58 77.9,233.7 77.9,323.8 0,90.2 -36.7,143.7 -97.8,143.7 -25.9,0 -70.2,-10.7 -123.7,-58.1 C389.6,565.3 348.3,522.5 337.6,481.3 L262.8,181.8 c-4.6,-18.3 -4.6,-21.4 -4.6,-24.4 0,-9.2 19.9,-136 120.7,-136 z M-28.9,-296.3 c-12.3,0 -19.9,6.1 -19.9,18.3 0,29.1 16.8,29.1 35.1,29.1 67.2,0 70.2,10.7 82.5,62.6 L239.9,498.1 c6.1,25.9 10.7,42.7 10.7,77.9 0,58 -21.4,70.3 -47.4,70.3 -55,0 -85.6,-73.4 -111.5,-181.9 C82.5,430.8 81,429.3 65.7,429.3 c-3.1,0 -18.3,0 -18.3,15.3 0,4.6 19.8,96.2 47.3,148.2 13.8,27.5 42.8,87.1 113.1,87.1 56.5,0 122.2,-32.1 137.5,-114.6 C395.7,624.9 469,679.9 545.4,679.9 661.5,679.9 748.6,579 748.6,435.4 c0,-224.6 -191,-447.5 -368.2,-447.5 -77.9,0 -120.7,53.4 -140.5,97.7 C229.2,47.4 165,-201.6 165,-219.9 c0,-13.8 0,-24.4 76.4,-24.4 21.4,0 36.7,0 36.7,-16.9 0,-30.5 -19.9,-30.5 -27.5,-30.5 l-151.3,0 c-42.8,0 -87.1,-4.6 -128.2,-4.6 z"/>
			</g>
		</g>
	</defs>
	<use transform="translate(7.5,2.5)" xlink:href="#imply"/>
	<use transform="translate(2.5,12.5)" xlink:href="#nece"/>
	<use transform="translate(12.5,12.5)" xlink:href="#vertexSquare"/>
	<use transform="translate(11.66,12.5)" xlink:href="#var_p"/>
	<use transform="translate(2.5,22.5)" xlink:href="#vertexSquare"/>
	<use transform="translate(1.66,22.5)" xlink:href="#var_p"/>
</svg>
