<svg xmlns="http://www.w3.org/2000/svg" width="1298" height="760" viewBox="150 127 1298 760">
<!-- Plot data obtained via command "pmGenerator <two hyphens>plot -s -x 500 -o data/default-plot_data_x500.txt -d" ; repository at https://github.com/xamidi/pmGenerator -->
<style>
<![CDATA[text{filter:drop-shadow(0px -2px 6px #fff)}.B{font-family:Arial}.C{font-size:17px}.D{stroke-opacity:1}.G{text-anchor:middle}.H{text-anchor:end}.I{stroke-width:2}.J{stroke-dasharray:4 3}.K{font-style:italic}]]>
</style>
<defs>
<linearGradient id="A">
<stop offset="0%" stop-color="#e1e1e1"/><!-- relative luminance: 0.7529422168 (instead of #c0c0c0) -->
<stop offset="5%" stop-color="#e1e1e1"/>
<stop offset="28%" stop-color="#bcbcbc"/><!-- relative luminance: 0.502886458 (instead of #808080) -->
<stop offset="38%" stop-color="#bcbcbc"/>
<stop offset="61%" stop-color="#898989"/><!-- relative luminance: 0.2501582847 (instead of #404040) -->
<stop offset="71%" stop-color="#898989"/>
<stop offset="95%" stop-color="#000"/>
</linearGradient>
</defs>
<text x="296" y="161.45" font-weight="bold" class="B C">Amount of minimal condensed detachment proofs w.r.t symbolic conclusion lengths</text>
<text x="1310" y="206.45" class="B C">proof length 27</text>
<circle cx="1287" cy="200.5" r="4" fill="#e1e1e1"/>
<text x="1310" y="234.45" class="B C">proof length 29</text>
<circle cx="1287" cy="228.5" r="4" fill="#bcbcbc"/>
<text x="1310" y="262.45" class="B C">proof length 31</text>
<circle cx="1287" cy="256.5" r="4" fill="#898989"/>
<text x="1310" y="290.45" class="B C">proof length 33</text>
<circle cx="1287" cy="284.5" r="4" fill="#000"/>
<text x="1310" y="318.45" class="B C">averages</text>
<path fill="none" stroke="url(#A)" d="M1270,312.5L1304,312.5001" class="D I"/>
<text x="1310" y="346.45" class="B C">medians</text>
<path fill="none" stroke="url(#A)" d="M1270,340.5L1304,340.5001" class="D I J"/>
<path fill="#ccc" d="M296 192h1v622h-1zm191 0h1v622h-1zm191 0h1v622h-1zm192 0h1v622h-1zm191 0h1v622h-1zm191 0h1v622h-1z"/>
<path fill="#ebebeb" d="M392 192h1v622h-1zm191 0h1v622h-1zm191 0h1v622h-1zm191 0h1v622h-1zm191 0h1v622h-1z"/>
<path fill="#ccc" d="M296 813h957v1H296zm0-155h957v1H296zm0-155h957v1H296zm0-156h957v1H296zm0-155h957v1H296z"/>
<path fill="#ebebeb" d="M296 735h957v1H296zm0-155h957v1H296zm0-155h957v1H296zm0-155h957v1H296z"/>
<g fill="#333">
<path d="M296 192h1v622h-1z"/>
<path d="M296 813h957v1H296z"/>
</g>
<g fill="none" class="I D">
<path stroke="#e1e1e1" d="M466.439 813.5v-621"/>
<path stroke="#bcbcbc" d="M489.077 813.5v-621"/>
<path stroke="#898989" d="M513.914 813.5v-621"/>
<path stroke="#000" d="M541.064 813.5v-621"/>
<g class="J">
<path stroke="#e1e1e1" d="M424.604 813.5v-621"/>
<path stroke="#bcbcbc" d="M439.9 813.5v-621"/>
<path stroke="#898989" d="M455.196 813.5v-621"/>
<path stroke="#000" d="M470.492 813.5v-621"/>
</g>
</g>
<g fill="#e1e1e1">
<circle cx="298.412" cy="813.5" r="4"/>
<circle cx="300.324" cy="813.5" r="4"/>
<circle cx="302.236" cy="813.5" r="4"/>
<circle cx="304.148" cy="813.5" r="4"/>
<circle cx="306.06" cy="813.5" r="4"/>
<circle cx="307.972" cy="813.5" r="4"/>
<circle cx="309.884" cy="813.498" r="4"/>
<circle cx="311.796" cy="813.498" r="4"/>
<circle cx="313.708" cy="813.495" r="4"/>
<circle cx="315.62" cy="813.486" r="4"/>
<circle cx="317.532" cy="813.484" r="4"/>
<circle cx="319.444" cy="813.471" r="4"/>
<circle cx="321.356" cy="813.412" r="4"/>
<circle cx="323.268" cy="813.415" r="4"/>
<circle cx="325.18" cy="813.248" r="4"/>
<circle cx="327.092" cy="813.361" r="4"/>
<circle cx="329.004" cy="812.949" r="4"/>
<circle cx="330.916" cy="813.04" r="4"/>
<circle cx="332.828" cy="811.877" r="4"/>
<circle cx="334.74" cy="813.183" r="4"/>
<circle cx="336.652" cy="811.162" r="4"/>
<circle cx="338.564" cy="812.128" r="4"/>
<circle cx="340.476" cy="807.261" r="4"/>
<circle cx="342.388" cy="812.927" r="4"/>
<circle cx="344.3" cy="807.942" r="4"/>
<circle cx="346.212" cy="811.962" r="4"/>
<circle cx="348.124" cy="798.199" r="4"/>
<circle cx="350.036" cy="812.715" r="4"/>
<circle cx="351.948" cy="804.536" r="4"/>
<circle cx="353.86" cy="812.024" r="4"/>
<circle cx="355.772" cy="788.794" r="4"/>
<circle cx="357.684" cy="812.656" r="4"/>
<circle cx="359.596" cy="800.728" r="4"/>
<circle cx="361.508" cy="812.427" r="4"/>
<circle cx="363.42" cy="782.473" r="4"/>
<circle cx="365.332" cy="812.701" r="4"/>
<circle cx="367.244" cy="797.371" r="4"/>
<circle cx="369.156" cy="812.733" r="4"/>
<circle cx="371.068" cy="781.166" r="4"/>
<circle cx="372.98" cy="812.887" r="4"/>
<circle cx="374.892" cy="794.751" r="4"/>
<circle cx="376.804" cy="812.844" r="4"/>
<circle cx="378.716" cy="784.283" r="4"/>
<circle cx="380.628" cy="812.839" r="4"/>
<circle cx="382.54" cy="793.791" r="4"/>
<circle cx="384.452" cy="812.98" r="4"/>
<circle cx="386.364" cy="787.774" r="4"/>
<circle cx="388.276" cy="812.88" r="4"/>
<circle cx="390.188" cy="794.114" r="4"/>
<circle cx="392.1" cy="813.056" r="4"/>
<circle cx="394.012" cy="790.757" r="4"/>
<circle cx="395.924" cy="812.964" r="4"/>
<circle cx="397.836" cy="793.664" r="4"/>
<circle cx="399.748" cy="813.113" r="4"/>
<circle cx="401.66" cy="793.108" r="4"/>
<circle cx="403.572" cy="812.985" r="4"/>
<circle cx="405.484" cy="795.638" r="4"/>
<circle cx="407.396" cy="813.171" r="4"/>
<circle cx="409.308" cy="795.128" r="4"/>
<circle cx="411.22" cy="813.157" r="4"/>
<circle cx="413.132" cy="795.063" r="4"/>
<circle cx="415.044" cy="813.132" r="4"/>
<circle cx="416.956" cy="796.239" r="4"/>
<circle cx="418.868" cy="813.207" r="4"/>
<circle cx="420.78" cy="796.924" r="4"/>
<circle cx="422.692" cy="813.153" r="4"/>
<circle cx="424.604" cy="797.914" r="4"/>
<circle cx="426.516" cy="813.203" r="4"/>
<circle cx="428.428" cy="797.309" r="4"/>
<circle cx="430.34" cy="813.186" r="4"/>
<circle cx="432.252" cy="797.142" r="4"/>
<circle cx="434.164" cy="813.294" r="4"/>
<circle cx="436.076" cy="799.641" r="4"/>
<circle cx="437.988" cy="813.264" r="4"/>
<circle cx="439.9" cy="799.926" r="4"/>
<circle cx="441.812" cy="813.344" r="4"/>
<circle cx="443.724" cy="799.446" r="4"/>
<circle cx="445.636" cy="813.305" r="4"/>
<circle cx="447.548" cy="799.614" r="4"/>
<circle cx="449.46" cy="813.306" r="4"/>
<circle cx="451.372" cy="802.166" r="4"/>
<circle cx="453.284" cy="813.355" r="4"/>
<circle cx="455.196" cy="801.209" r="4"/>
<circle cx="457.108" cy="813.364" r="4"/>
<circle cx="459.02" cy="802.116" r="4"/>
<circle cx="460.932" cy="813.332" r="4"/>
<circle cx="462.844" cy="801.692" r="4"/>
<circle cx="464.756" cy="813.386" r="4"/>
<circle cx="466.668" cy="802.802" r="4"/>
<circle cx="468.58" cy="813.38" r="4"/>
<circle cx="470.492" cy="803.549" r="4"/>
<circle cx="472.404" cy="813.362" r="4"/>
<circle cx="474.316" cy="804.224" r="4"/>
<circle cx="476.228" cy="813.397" r="4"/>
<circle cx="478.14" cy="802.904" r="4"/>
<circle cx="480.052" cy="813.41" r="4"/>
<circle cx="481.964" cy="805.158" r="4"/>
<circle cx="483.876" cy="813.384" r="4"/>
<circle cx="485.788" cy="804.93" r="4"/>
<circle cx="487.7" cy="813.412" r="4"/>
<circle cx="489.612" cy="804.711" r="4"/>
<circle cx="491.524" cy="813.408" r="4"/>
<circle cx="493.436" cy="805.238" r="4"/>
<circle cx="495.348" cy="813.408" r="4"/>
<circle cx="497.26" cy="806.775" r="4"/>
<circle cx="499.172" cy="813.437" r="4"/>
<circle cx="501.084" cy="805.839" r="4"/>
<circle cx="502.996" cy="813.437" r="4"/>
<circle cx="504.908" cy="807.036" r="4"/>
<circle cx="506.82" cy="813.408" r="4"/>
<circle cx="508.732" cy="807.009" r="4"/>
<circle cx="510.644" cy="813.409" r="4"/>
<circle cx="512.556" cy="806.631" r="4"/>
<circle cx="514.468" cy="813.439" r="4"/>
<circle cx="516.38" cy="807.611" r="4"/>
<circle cx="518.292" cy="813.447" r="4"/>
<circle cx="520.204" cy="808.327" r="4"/>
<circle cx="522.116" cy="813.447" r="4"/>
<circle cx="524.028" cy="807.018" r="4"/>
<circle cx="525.94" cy="813.443" r="4"/>
<circle cx="527.852" cy="808.444" r="4"/>
<circle cx="529.764" cy="813.446" r="4"/>
<circle cx="531.676" cy="808.312" r="4"/>
<circle cx="533.588" cy="813.455" r="4"/>
<circle cx="535.5" cy="807.961" r="4"/>
<circle cx="537.412" cy="813.455" r="4"/>
<circle cx="539.324" cy="808.923" r="4"/>
<circle cx="541.236" cy="813.444" r="4"/>
<circle cx="543.148" cy="809.138" r="4"/>
<circle cx="545.06" cy="813.459" r="4"/>
<circle cx="546.972" cy="808.678" r="4"/>
<circle cx="548.884" cy="813.45" r="4"/>
<circle cx="550.796" cy="809.536" r="4"/>
<circle cx="552.708" cy="813.446" r="4"/>
<circle cx="554.62" cy="809.588" r="4"/>
<circle cx="556.532" cy="813.467" r="4"/>
<circle cx="558.444" cy="808.73" r="4"/>
<circle cx="560.356" cy="813.459" r="4"/>
<circle cx="562.268" cy="809.79" r="4"/>
<circle cx="564.18" cy="813.446" r="4"/>
<circle cx="566.092" cy="810.355" r="4"/>
<circle cx="568.004" cy="813.446" r="4"/>
<circle cx="569.916" cy="809.485" r="4"/>
<circle cx="571.828" cy="813.454" r="4"/>
<circle cx="573.74" cy="810.556" r="4"/>
<circle cx="575.652" cy="813.463" r="4"/>
<circle cx="577.564" cy="810.152" r="4"/>
<circle cx="579.476" cy="813.473" r="4"/>
<circle cx="581.388" cy="810.01" r="4"/>
<circle cx="583.3" cy="813.482" r="4"/>
<circle cx="585.212" cy="810.714" r="4"/>
<circle cx="587.124" cy="813.454" r="4"/>
<circle cx="589.036" cy="810.898" r="4"/>
<circle cx="590.948" cy="813.477" r="4"/>
<circle cx="592.86" cy="810.462" r="4"/>
<circle cx="594.772" cy="813.482" r="4"/>
<circle cx="596.684" cy="810.635" r="4"/>
<circle cx="598.596" cy="813.477" r="4"/>
<circle cx="600.508" cy="810.9" r="4"/>
<circle cx="602.42" cy="813.483" r="4"/>
<circle cx="604.332" cy="810.715" r="4"/>
<circle cx="606.244" cy="813.472" r="4"/>
<circle cx="608.156" cy="811.183" r="4"/>
<circle cx="610.068" cy="813.469" r="4"/>
<circle cx="611.98" cy="811.445" r="4"/>
<circle cx="613.892" cy="813.475" r="4"/>
<circle cx="615.804" cy="810.825" r="4"/>
<circle cx="617.716" cy="813.488" r="4"/>
<circle cx="619.628" cy="811.396" r="4"/>
<circle cx="621.54" cy="813.479" r="4"/>
<circle cx="623.452" cy="811.235" r="4"/>
<circle cx="625.364" cy="813.479" r="4"/>
<circle cx="627.276" cy="811.437" r="4"/>
<circle cx="629.188" cy="813.488" r="4"/>
<circle cx="631.1" cy="811.555" r="4"/>
<circle cx="633.012" cy="813.491" r="4"/>
<circle cx="634.924" cy="811.479" r="4"/>
<circle cx="636.836" cy="813.485" r="4"/>
<circle cx="638.748" cy="811.293" r="4"/>
<circle cx="640.66" cy="813.488" r="4"/>
<circle cx="642.572" cy="811.95" r="4"/>
<circle cx="644.484" cy="813.48" r="4"/>
<circle cx="646.396" cy="811.719" r="4"/>
<circle cx="648.308" cy="813.49" r="4"/>
<circle cx="650.22" cy="811.843" r="4"/>
<circle cx="652.132" cy="813.485" r="4"/>
<circle cx="654.044" cy="811.709" r="4"/>
<circle cx="655.956" cy="813.491" r="4"/>
<circle cx="657.868" cy="812.049" r="4"/>
<circle cx="659.78" cy="813.489" r="4"/>
<circle cx="661.692" cy="811.593" r="4"/>
<circle cx="663.604" cy="813.49" r="4"/>
<circle cx="665.516" cy="812.154" r="4"/>
<circle cx="667.428" cy="813.484" r="4"/>
<circle cx="669.34" cy="812.031" r="4"/>
<circle cx="671.252" cy="813.49" r="4"/>
<circle cx="673.164" cy="811.765" r="4"/>
<circle cx="675.076" cy="813.489" r="4"/>
<circle cx="676.988" cy="812.241" r="4"/>
<circle cx="678.9" cy="813.491" r="4"/>
<circle cx="680.812" cy="812.422" r="4"/>
<circle cx="682.724" cy="813.488" r="4"/>
<circle cx="684.636" cy="811.809" r="4"/>
<circle cx="686.548" cy="813.489" r="4"/>
<circle cx="688.46" cy="812.395" r="4"/>
<circle cx="690.372" cy="813.49" r="4"/>
<circle cx="692.284" cy="812.136" r="4"/>
<circle cx="694.196" cy="813.491" r="4"/>
<circle cx="696.108" cy="812.261" r="4"/>
<circle cx="698.02" cy="813.488" r="4"/>
<circle cx="699.932" cy="812.499" r="4"/>
<circle cx="701.844" cy="813.488" r="4"/>
<circle cx="703.756" cy="812.682" r="4"/>
<circle cx="705.668" cy="813.486" r="4"/>
<circle cx="707.58" cy="812.166" r="4"/>
<circle cx="709.492" cy="813.489" r="4"/>
<circle cx="711.404" cy="812.371" r="4"/>
<circle cx="713.316" cy="813.495" r="4"/>
<circle cx="715.228" cy="812.385" r="4"/>
<circle cx="717.14" cy="813.493" r="4"/>
<circle cx="719.052" cy="812.442" r="4"/>
<circle cx="720.964" cy="813.488" r="4"/>
<circle cx="722.876" cy="812.546" r="4"/>
<circle cx="724.788" cy="813.488" r="4"/>
<circle cx="726.7" cy="812.801" r="4"/>
<circle cx="728.612" cy="813.492" r="4"/>
<circle cx="730.524" cy="812.388" r="4"/>
<circle cx="732.436" cy="813.491" r="4"/>
<circle cx="734.348" cy="812.726" r="4"/>
<circle cx="736.26" cy="813.49" r="4"/>
<circle cx="738.172" cy="812.651" r="4"/>
<circle cx="740.084" cy="813.494" r="4"/>
<circle cx="741.996" cy="812.693" r="4"/>
<circle cx="743.908" cy="813.492" r="4"/>
<circle cx="745.82" cy="812.539" r="4"/>
<circle cx="747.732" cy="813.497" r="4"/>
<circle cx="749.644" cy="812.679" r="4"/>
<circle cx="751.556" cy="813.491" r="4"/>
<circle cx="753.468" cy="812.517" r="4"/>
<circle cx="755.38" cy="813.49" r="4"/>
<circle cx="757.292" cy="812.864" r="4"/>
<circle cx="759.204" cy="813.492" r="4"/>
<circle cx="761.116" cy="812.718" r="4"/>
<circle cx="763.028" cy="813.489" r="4"/>
<circle cx="764.94" cy="812.878" r="4"/>
<circle cx="766.852" cy="813.493" r="4"/>
<circle cx="768.764" cy="812.78" r="4"/>
<circle cx="770.676" cy="813.494" r="4"/>
<circle cx="772.588" cy="812.98" r="4"/>
<circle cx="774.5" cy="813.497" r="4"/>
<circle cx="776.412" cy="812.634" r="4"/>
<circle cx="778.324" cy="813.494" r="4"/>
<circle cx="780.236" cy="812.898" r="4"/>
<circle cx="782.148" cy="813.494" r="4"/>
<circle cx="784.06" cy="812.793" r="4"/>
<circle cx="785.972" cy="813.498" r="4"/>
<circle cx="787.884" cy="812.807" r="4"/>
<circle cx="789.796" cy="813.498" r="4"/>
<circle cx="791.708" cy="812.895" r="4"/>
<circle cx="793.62" cy="813.495" r="4"/>
<circle cx="795.532" cy="813.061" r="4"/>
<circle cx="797.444" cy="813.496" r="4"/>
<circle cx="799.356" cy="812.854" r="4"/>
<circle cx="801.268" cy="813.498" r="4"/>
<circle cx="803.18" cy="813.099" r="4"/>
<circle cx="805.092" cy="813.498" r="4"/>
<circle cx="807.004" cy="812.693" r="4"/>
<circle cx="808.916" cy="813.498" r="4"/>
<circle cx="810.828" cy="812.976" r="4"/>
<circle cx="812.74" cy="813.498" r="4"/>
<circle cx="814.652" cy="813.03" r="4"/>
<circle cx="816.564" cy="813.496" r="4"/>
<circle cx="818.476" cy="813.113" r="4"/>
<circle cx="820.388" cy="813.498" r="4"/>
<circle cx="822.3" cy="812.933" r="4"/>
<circle cx="824.212" cy="813.499" r="4"/>
<circle cx="826.124" cy="813.044" r="4"/>
<circle cx="828.036" cy="813.498" r="4"/>
<circle cx="829.948" cy="812.997" r="4"/>
<circle cx="831.86" cy="813.499" r="4"/>
<circle cx="833.772" cy="813.124" r="4"/>
<circle cx="835.684" cy="813.497" r="4"/>
<circle cx="837.596" cy="813.006" r="4"/>
<circle cx="839.508" cy="813.498" r="4"/>
<circle cx="841.42" cy="813.15" r="4"/>
<circle cx="843.332" cy="813.498" r="4"/>
<circle cx="845.244" cy="812.948" r="4"/>
<circle cx="847.156" cy="813.498" r="4"/>
<circle cx="849.068" cy="813.171" r="4"/>
<circle cx="850.98" cy="813.497" r="4"/>
<circle cx="852.892" cy="813.138" r="4"/>
<circle cx="854.804" cy="813.497" r="4"/>
<circle cx="856.716" cy="813.138" r="4"/>
<circle cx="858.628" cy="813.498" r="4"/>
<circle cx="860.54" cy="813.169" r="4"/>
<circle cx="862.452" cy="813.499" r="4"/>
<circle cx="864.364" cy="813.165" r="4"/>
<circle cx="866.276" cy="813.499" r="4"/>
<circle cx="868.188" cy="812.965" r="4"/>
<circle cx="870.1" cy="813.498" r="4"/>
<circle cx="872.012" cy="813.27" r="4"/>
<circle cx="873.924" cy="813.498" r="4"/>
<circle cx="875.836" cy="813.087" r="4"/>
<circle cx="877.748" cy="813.498" r="4"/>
<circle cx="879.66" cy="813.165" r="4"/>
<circle cx="881.572" cy="813.498" r="4"/>
<circle cx="883.484" cy="813.1" r="4"/>
<circle cx="885.396" cy="813.499" r="4"/>
<circle cx="887.308" cy="813.224" r="4"/>
<circle cx="889.22" cy="813.497" r="4"/>
<circle cx="891.132" cy="813.118" r="4"/>
<circle cx="893.044" cy="813.496" r="4"/>
<circle cx="894.956" cy="813.278" r="4"/>
<circle cx="896.868" cy="813.499" r="4"/>
<circle cx="898.78" cy="813.151" r="4"/>
<circle cx="900.692" cy="813.496" r="4"/>
<circle cx="902.604" cy="813.149" r="4"/>
<circle cx="904.516" cy="813.499" r="4"/>
<circle cx="906.428" cy="813.252" r="4"/>
<circle cx="908.34" cy="813.499" r="4"/>
<circle cx="910.252" cy="813.269" r="4"/>
<circle cx="912.164" cy="813.499" r="4"/>
<circle cx="914.076" cy="813.168" r="4"/>
<circle cx="915.988" cy="813.499" r="4"/>
<circle cx="917.9" cy="813.267" r="4"/>
<circle cx="919.812" cy="813.498" r="4"/>
<circle cx="921.724" cy="813.21" r="4"/>
<circle cx="923.636" cy="813.5" r="4"/>
<circle cx="925.548" cy="813.286" r="4"/>
<circle cx="927.46" cy="813.498" r="4"/>
<circle cx="929.372" cy="813.124" r="4"/>
<circle cx="931.284" cy="813.498" r="4"/>
<circle cx="933.196" cy="813.305" r="4"/>
<circle cx="935.108" cy="813.5" r="4"/>
<circle cx="937.02" cy="813.226" r="4"/>
<circle cx="938.932" cy="813.496" r="4"/>
<circle cx="940.844" cy="813.273" r="4"/>
<circle cx="942.756" cy="813.497" r="4"/>
<circle cx="944.668" cy="813.245" r="4"/>
<circle cx="946.58" cy="813.499" r="4"/>
<circle cx="948.492" cy="813.287" r="4"/>
<circle cx="950.404" cy="813.498" r="4"/>
<circle cx="952.316" cy="813.31" r="4"/>
<circle cx="954.228" cy="813.499" r="4"/>
<circle cx="956.14" cy="813.346" r="4"/>
<circle cx="958.052" cy="813.498" r="4"/>
<circle cx="959.964" cy="813.207" r="4"/>
<circle cx="961.876" cy="813.499" r="4"/>
<circle cx="963.788" cy="813.296" r="4"/>
<circle cx="965.7" cy="813.497" r="4"/>
<circle cx="967.612" cy="813.324" r="4"/>
<circle cx="969.524" cy="813.5" r="4"/>
<circle cx="971.436" cy="813.353" r="4"/>
<circle cx="973.348" cy="813.499" r="4"/>
<circle cx="975.26" cy="813.252" r="4"/>
<circle cx="977.172" cy="813.498" r="4"/>
<circle cx="979.084" cy="813.298" r="4"/>
<circle cx="980.996" cy="813.498" r="4"/>
<circle cx="982.908" cy="813.287" r="4"/>
<circle cx="984.82" cy="813.498" r="4"/>
<circle cx="986.732" cy="813.369" r="4"/>
<circle cx="988.644" cy="813.498" r="4"/>
<circle cx="990.556" cy="813.269" r="4"/>
<circle cx="992.468" cy="813.498" r="4"/>
<circle cx="994.38" cy="813.335" r="4"/>
<circle cx="996.292" cy="813.499" r="4"/>
<circle cx="998.204" cy="813.304" r="4"/>
<circle cx="1000.116" cy="813.5" r="4"/>
<circle cx="1002.028" cy="813.366" r="4"/>
<circle cx="1003.94" cy="813.499" r="4"/>
<circle cx="1005.852" cy="813.318" r="4"/>
<circle cx="1007.764" cy="813.499" r="4"/>
<circle cx="1009.676" cy="813.384" r="4"/>
<circle cx="1011.588" cy="813.499" r="4"/>
<circle cx="1013.5" cy="813.343" r="4"/>
<circle cx="1015.412" cy="813.5" r="4"/>
<circle cx="1017.324" cy="813.332" r="4"/>
<circle cx="1019.236" cy="813.5" r="4"/>
<circle cx="1021.148" cy="813.325" r="4"/>
<circle cx="1023.06" cy="813.499" r="4"/>
<circle cx="1024.972" cy="813.392" r="4"/>
<circle cx="1026.884" cy="813.499" r="4"/>
<circle cx="1028.796" cy="813.312" r="4"/>
<circle cx="1030.708" cy="813.499" r="4"/>
<circle cx="1032.62" cy="813.394" r="4"/>
<circle cx="1034.532" cy="813.499" r="4"/>
<circle cx="1036.444" cy="813.312" r="4"/>
<circle cx="1038.356" cy="813.5" r="4"/>
<circle cx="1040.268" cy="813.383" r="4"/>
<circle cx="1042.18" cy="813.499" r="4"/>
<circle cx="1044.092" cy="813.36" r="4"/>
<circle cx="1046.004" cy="813.499" r="4"/>
<circle cx="1047.916" cy="813.417" r="4"/>
<circle cx="1049.828" cy="813.498" r="4"/>
<circle cx="1051.74" cy="813.312" r="4"/>
<circle cx="1053.652" cy="813.5" r="4"/>
<circle cx="1055.564" cy="813.359" r="4"/>
<circle cx="1057.476" cy="813.5" r="4"/>
<circle cx="1059.388" cy="813.387" r="4"/>
<circle cx="1061.3" cy="813.5" r="4"/>
<circle cx="1063.212" cy="813.388" r="4"/>
<circle cx="1065.124" cy="813.5" r="4"/>
<circle cx="1067.036" cy="813.395" r="4"/>
<circle cx="1068.948" cy="813.5" r="4"/>
<circle cx="1070.86" cy="813.397" r="4"/>
<circle cx="1072.772" cy="813.5" r="4"/>
<circle cx="1074.684" cy="813.253" r="4"/>
<circle cx="1076.596" cy="813.5" r="4"/>
<circle cx="1078.508" cy="813.388" r="4"/>
<circle cx="1080.42" cy="813.5" r="4"/>
<circle cx="1082.332" cy="813.349" r="4"/>
<circle cx="1084.244" cy="813.5" r="4"/>
<circle cx="1086.156" cy="813.391" r="4"/>
<circle cx="1088.068" cy="813.5" r="4"/>
<circle cx="1089.98" cy="813.381" r="4"/>
<circle cx="1091.892" cy="813.5" r="4"/>
<circle cx="1093.804" cy="813.397" r="4"/>
<circle cx="1095.716" cy="813.499" r="4"/>
<circle cx="1097.628" cy="813.389" r="4"/>
<circle cx="1099.54" cy="813.498" r="4"/>
<circle cx="1101.452" cy="813.429" r="4"/>
<circle cx="1103.364" cy="813.497" r="4"/>
<circle cx="1105.276" cy="813.411" r="4"/>
<circle cx="1107.188" cy="813.5" r="4"/>
<circle cx="1109.1" cy="813.421" r="4"/>
<circle cx="1111.012" cy="813.5" r="4"/>
<circle cx="1112.924" cy="813.362" r="4"/>
<circle cx="1114.836" cy="813.498" r="4"/>
<circle cx="1116.748" cy="813.435" r="4"/>
<circle cx="1118.66" cy="813.5" r="4"/>
<circle cx="1120.572" cy="813.401" r="4"/>
<circle cx="1122.484" cy="813.5" r="4"/>
<circle cx="1124.396" cy="813.415" r="4"/>
<circle cx="1126.308" cy="813.5" r="4"/>
<circle cx="1128.22" cy="813.42" r="4"/>
<circle cx="1130.132" cy="813.499" r="4"/>
<circle cx="1132.044" cy="813.402" r="4"/>
<circle cx="1133.956" cy="813.5" r="4"/>
<circle cx="1135.868" cy="813.432" r="4"/>
<circle cx="1137.78" cy="813.5" r="4"/>
<circle cx="1139.692" cy="813.453" r="4"/>
<circle cx="1141.604" cy="813.5" r="4"/>
<circle cx="1143.516" cy="813.373" r="4"/>
<circle cx="1145.428" cy="813.5" r="4"/>
<circle cx="1147.34" cy="813.44" r="4"/>
<circle cx="1149.252" cy="813.5" r="4"/>
<circle cx="1151.164" cy="813.38" r="4"/>
<circle cx="1153.076" cy="813.5" r="4"/>
<circle cx="1154.988" cy="813.422" r="4"/>
<circle cx="1156.9" cy="813.5" r="4"/>
<circle cx="1158.812" cy="813.415" r="4"/>
<circle cx="1160.724" cy="813.499" r="4"/>
<circle cx="1162.636" cy="813.435" r="4"/>
<circle cx="1164.548" cy="813.5" r="4"/>
<circle cx="1166.46" cy="813.425" r="4"/>
<circle cx="1168.372" cy="813.5" r="4"/>
<circle cx="1170.284" cy="813.433" r="4"/>
<circle cx="1172.196" cy="813.5" r="4"/>
<circle cx="1174.108" cy="813.37" r="4"/>
<circle cx="1176.02" cy="813.5" r="4"/>
<circle cx="1177.932" cy="813.424" r="4"/>
<circle cx="1179.844" cy="813.5" r="4"/>
<circle cx="1181.756" cy="813.447" r="4"/>
<circle cx="1183.668" cy="813.5" r="4"/>
<circle cx="1185.58" cy="813.45" r="4"/>
<circle cx="1187.492" cy="813.498" r="4"/>
<circle cx="1189.404" cy="813.414" r="4"/>
<circle cx="1191.316" cy="813.5" r="4"/>
<circle cx="1193.228" cy="813.452" r="4"/>
<circle cx="1195.14" cy="813.5" r="4"/>
<circle cx="1197.052" cy="813.424" r="4"/>
<circle cx="1198.964" cy="813.5" r="4"/>
<circle cx="1200.876" cy="813.453" r="4"/>
<circle cx="1202.788" cy="813.499" r="4"/>
<circle cx="1204.7" cy="813.405" r="4"/>
<circle cx="1206.612" cy="813.499" r="4"/>
<circle cx="1208.524" cy="813.419" r="4"/>
<circle cx="1210.436" cy="813.499" r="4"/>
<circle cx="1212.348" cy="813.419" r="4"/>
<circle cx="1214.26" cy="813.5" r="4"/>
<circle cx="1216.172" cy="813.461" r="4"/>
<circle cx="1218.084" cy="813.5" r="4"/>
<circle cx="1219.996" cy="813.454" r="4"/>
<circle cx="1221.908" cy="813.5" r="4"/>
<circle cx="1223.82" cy="813.438" r="4"/>
<circle cx="1225.732" cy="813.5" r="4"/>
<circle cx="1227.644" cy="813.429" r="4"/>
<circle cx="1229.556" cy="813.5" r="4"/>
<circle cx="1231.468" cy="813.453" r="4"/>
<circle cx="1233.38" cy="813.5" r="4"/>
<circle cx="1235.292" cy="813.404" r="4"/>
<circle cx="1237.204" cy="813.499" r="4"/>
<circle cx="1239.116" cy="813.453" r="4"/>
<circle cx="1241.028" cy="813.499" r="4"/>
<circle cx="1242.94" cy="813.443" r="4"/>
<circle cx="1244.852" cy="813.5" r="4"/>
<circle cx="1246.764" cy="813.457" r="4"/>
<circle cx="1248.676" cy="813.5" r="4"/>
<circle cx="1250.588" cy="813.447" r="4"/>
<circle cx="1252.5" cy="813.499" r="4"/>
</g>
<g fill="#bcbcbc">
<circle cx="298.412" cy="813.5" r="4"/>
<circle cx="300.324" cy="813.5" r="4"/>
<circle cx="302.236" cy="813.5" r="4"/>
<circle cx="304.148" cy="813.5" r="4"/>
<circle cx="306.06" cy="813.5" r="4"/>
<circle cx="307.972" cy="813.5" r="4"/>
<circle cx="309.884" cy="813.499" r="4"/>
<circle cx="311.796" cy="813.498" r="4"/>
<circle cx="313.708" cy="813.492" r="4"/>
<circle cx="315.62" cy="813.492" r="4"/>
<circle cx="317.532" cy="813.478" r="4"/>
<circle cx="319.444" cy="813.456" r="4"/>
<circle cx="321.356" cy="813.425" r="4"/>
<circle cx="323.268" cy="813.401" r="4"/>
<circle cx="325.18" cy="813.201" r="4"/>
<circle cx="327.092" cy="813.196" r="4"/>
<circle cx="329.004" cy="812.596" r="4"/>
<circle cx="330.916" cy="813.061" r="4"/>
<circle cx="332.828" cy="811.703" r="4"/>
<circle cx="334.74" cy="812.129" r="4"/>
<circle cx="336.652" cy="808.465" r="4"/>
<circle cx="338.564" cy="812.558" r="4"/>
<circle cx="340.476" cy="806.934" r="4"/>
<circle cx="342.388" cy="810.099" r="4"/>
<circle cx="344.3" cy="796.898" r="4"/>
<circle cx="346.212" cy="811.916" r="4"/>
<circle cx="348.124" cy="798.767" r="4"/>
<circle cx="350.036" cy="809.463" r="4"/>
<circle cx="351.948" cy="774.244" r="4"/>
<circle cx="353.86" cy="811.377" r="4"/>
<circle cx="355.772" cy="789.233" r="4"/>
<circle cx="357.684" cy="809.465" r="4"/>
<circle cx="359.596" cy="750.669" r="4"/>
<circle cx="361.508" cy="811.118" r="4"/>
<circle cx="363.42" cy="779.214" r="4"/>
<circle cx="365.332" cy="810.358" r="4"/>
<circle cx="367.244" cy="733.973" r="4"/>
<circle cx="369.156" cy="811.211" r="4"/>
<circle cx="371.068" cy="770.438" r="4"/>
<circle cx="372.98" cy="811.268" r="4"/>
<circle cx="374.892" cy="729.453" r="4"/>
<circle cx="376.804" cy="811.676" r="4"/>
<circle cx="378.716" cy="763.474" r="4"/>
<circle cx="380.628" cy="811.59" r="4"/>
<circle cx="382.54" cy="735.66" r="4"/>
<circle cx="384.452" cy="811.625" r="4"/>
<circle cx="386.364" cy="759.437" r="4"/>
<circle cx="388.276" cy="812.038" r="4"/>
<circle cx="390.188" cy="742.541" r="4"/>
<circle cx="392.1" cy="811.624" r="4"/>
<circle cx="394.012" cy="758.791" r="4"/>
<circle cx="395.924" cy="812.187" r="4"/>
<circle cx="397.836" cy="751.712" r="4"/>
<circle cx="399.748" cy="811.935" r="4"/>
<circle cx="401.66" cy="758.388" r="4"/>
<circle cx="403.572" cy="812.29" r="4"/>
<circle cx="405.484" cy="757.417" r="4"/>
<circle cx="407.396" cy="811.981" r="4"/>
<circle cx="409.308" cy="759.589" r="4"/>
<circle cx="411.22" cy="812.459" r="4"/>
<circle cx="413.132" cy="764.925" r="4"/>
<circle cx="415.044" cy="812.299" r="4"/>
<circle cx="416.956" cy="761.465" r="4"/>
<circle cx="418.868" cy="812.488" r="4"/>
<circle cx="420.78" cy="766.517" r="4"/>
<circle cx="422.692" cy="812.478" r="4"/>
<circle cx="424.604" cy="761.279" r="4"/>
<circle cx="426.516" cy="812.397" r="4"/>
<circle cx="428.428" cy="772.601" r="4"/>
<circle cx="430.34" cy="812.624" r="4"/>
<circle cx="432.252" cy="765.866" r="4"/>
<circle cx="434.164" cy="812.66" r="4"/>
<circle cx="436.076" cy="771.565" r="4"/>
<circle cx="437.988" cy="812.652" r="4"/>
<circle cx="439.9" cy="765.934" r="4"/>
<circle cx="441.812" cy="812.82" r="4"/>
<circle cx="443.724" cy="776.599" r="4"/>
<circle cx="445.636" cy="812.971" r="4"/>
<circle cx="447.548" cy="771.631" r="4"/>
<circle cx="449.46" cy="812.781" r="4"/>
<circle cx="451.372" cy="778.097" r="4"/>
<circle cx="453.284" cy="812.874" r="4"/>
<circle cx="455.196" cy="770.216" r="4"/>
<circle cx="457.108" cy="813.008" r="4"/>
<circle cx="459.02" cy="782.326" r="4"/>
<circle cx="460.932" cy="812.922" r="4"/>
<circle cx="462.844" cy="777.494" r="4"/>
<circle cx="464.756" cy="813.013" r="4"/>
<circle cx="466.668" cy="780.797" r="4"/>
<circle cx="468.58" cy="813.092" r="4"/>
<circle cx="470.492" cy="776.388" r="4"/>
<circle cx="472.404" cy="812.967" r="4"/>
<circle cx="474.316" cy="786.888" r="4"/>
<circle cx="476.228" cy="813.08" r="4"/>
<circle cx="478.14" cy="779.536" r="4"/>
<circle cx="480.052" cy="813.144" r="4"/>
<circle cx="481.964" cy="786.997" r="4"/>
<circle cx="483.876" cy="813.041" r="4"/>
<circle cx="485.788" cy="782.499" r="4"/>
<circle cx="487.7" cy="813.176" r="4"/>
<circle cx="489.612" cy="787.988" r="4"/>
<circle cx="491.524" cy="813.106" r="4"/>
<circle cx="493.436" cy="786.269" r="4"/>
<circle cx="495.348" cy="813.119" r="4"/>
<circle cx="497.26" cy="791.611" r="4"/>
<circle cx="499.172" cy="813.201" r="4"/>
<circle cx="501.084" cy="784.127" r="4"/>
<circle cx="502.996" cy="813.268" r="4"/>
<circle cx="504.908" cy="793.734" r="4"/>
<circle cx="506.82" cy="813.19" r="4"/>
<circle cx="508.732" cy="790.221" r="4"/>
<circle cx="510.644" cy="813.25" r="4"/>
<circle cx="512.556" cy="792.931" r="4"/>
<circle cx="514.468" cy="813.224" r="4"/>
<circle cx="516.38" cy="791.791" r="4"/>
<circle cx="518.292" cy="813.242" r="4"/>
<circle cx="520.204" cy="796.938" r="4"/>
<circle cx="522.116" cy="813.273" r="4"/>
<circle cx="524.028" cy="790.549" r="4"/>
<circle cx="525.94" cy="813.314" r="4"/>
<circle cx="527.852" cy="797.726" r="4"/>
<circle cx="529.764" cy="813.21" r="4"/>
<circle cx="531.676" cy="794.732" r="4"/>
<circle cx="533.588" cy="813.345" r="4"/>
<circle cx="535.5" cy="796.778" r="4"/>
<circle cx="537.412" cy="813.3" r="4"/>
<circle cx="539.324" cy="794.991" r="4"/>
<circle cx="541.236" cy="813.314" r="4"/>
<circle cx="543.148" cy="799.958" r="4"/>
<circle cx="545.06" cy="813.322" r="4"/>
<circle cx="546.972" cy="794.415" r="4"/>
<circle cx="548.884" cy="813.325" r="4"/>
<circle cx="550.796" cy="800.872" r="4"/>
<circle cx="552.708" cy="813.277" r="4"/>
<circle cx="554.62" cy="798.077" r="4"/>
<circle cx="556.532" cy="813.366" r="4"/>
<circle cx="558.444" cy="800.127" r="4"/>
<circle cx="560.356" cy="813.36" r="4"/>
<circle cx="562.268" cy="799.354" r="4"/>
<circle cx="564.18" cy="813.338" r="4"/>
<circle cx="566.092" cy="803.124" r="4"/>
<circle cx="568.004" cy="813.307" r="4"/>
<circle cx="569.916" cy="798.251" r="4"/>
<circle cx="571.828" cy="813.365" r="4"/>
<circle cx="573.74" cy="803.023" r="4"/>
<circle cx="575.652" cy="813.327" r="4"/>
<circle cx="577.564" cy="801.013" r="4"/>
<circle cx="579.476" cy="813.402" r="4"/>
<circle cx="581.388" cy="802.168" r="4"/>
<circle cx="583.3" cy="813.37" r="4"/>
<circle cx="585.212" cy="801.854" r="4"/>
<circle cx="587.124" cy="813.386" r="4"/>
<circle cx="589.036" cy="804.974" r="4"/>
<circle cx="590.948" cy="813.391" r="4"/>
<circle cx="592.86" cy="801.064" r="4"/>
<circle cx="594.772" cy="813.416" r="4"/>
<circle cx="596.684" cy="805.189" r="4"/>
<circle cx="598.596" cy="813.387" r="4"/>
<circle cx="600.508" cy="802.881" r="4"/>
<circle cx="602.42" cy="813.423" r="4"/>
<circle cx="604.332" cy="804.363" r="4"/>
<circle cx="606.244" cy="813.387" r="4"/>
<circle cx="608.156" cy="804.495" r="4"/>
<circle cx="610.068" cy="813.409" r="4"/>
<circle cx="611.98" cy="806.618" r="4"/>
<circle cx="613.892" cy="813.411" r="4"/>
<circle cx="615.804" cy="802.41" r="4"/>
<circle cx="617.716" cy="813.42" r="4"/>
<circle cx="619.628" cy="806.537" r="4"/>
<circle cx="621.54" cy="813.409" r="4"/>
<circle cx="623.452" cy="805.394" r="4"/>
<circle cx="625.364" cy="813.429" r="4"/>
<circle cx="627.276" cy="805.489" r="4"/>
<circle cx="629.188" cy="813.412" r="4"/>
<circle cx="631.1" cy="806.195" r="4"/>
<circle cx="633.012" cy="813.433" r="4"/>
<circle cx="634.924" cy="807.186" r="4"/>
<circle cx="636.836" cy="813.45" r="4"/>
<circle cx="638.748" cy="804.848" r="4"/>
<circle cx="640.66" cy="813.444" r="4"/>
<circle cx="642.572" cy="807.743" r="4"/>
<circle cx="644.484" cy="813.41" r="4"/>
<circle cx="646.396" cy="806.494" r="4"/>
<circle cx="648.308" cy="813.443" r="4"/>
<circle cx="650.22" cy="807.238" r="4"/>
<circle cx="652.132" cy="813.449" r="4"/>
<circle cx="654.044" cy="806.182" r="4"/>
<circle cx="655.956" cy="813.432" r="4"/>
<circle cx="657.868" cy="808.344" r="4"/>
<circle cx="659.78" cy="813.461" r="4"/>
<circle cx="661.692" cy="806.744" r="4"/>
<circle cx="663.604" cy="813.446" r="4"/>
<circle cx="665.516" cy="808.365" r="4"/>
<circle cx="667.428" cy="813.447" r="4"/>
<circle cx="669.34" cy="808.002" r="4"/>
<circle cx="671.252" cy="813.459" r="4"/>
<circle cx="673.164" cy="807.864" r="4"/>
<circle cx="675.076" cy="813.453" r="4"/>
<circle cx="676.988" cy="807.97" r="4"/>
<circle cx="678.9" cy="813.453" r="4"/>
<circle cx="680.812" cy="809.456" r="4"/>
<circle cx="682.724" cy="813.457" r="4"/>
<circle cx="684.636" cy="807.552" r="4"/>
<circle cx="686.548" cy="813.46" r="4"/>
<circle cx="688.46" cy="809.21" r="4"/>
<circle cx="690.372" cy="813.453" r="4"/>
<circle cx="692.284" cy="807.732" r="4"/>
<circle cx="694.196" cy="813.465" r="4"/>
<circle cx="696.108" cy="808.799" r="4"/>
<circle cx="698.02" cy="813.467" r="4"/>
<circle cx="699.932" cy="809.505" r="4"/>
<circle cx="701.844" cy="813.425" r="4"/>
<circle cx="703.756" cy="810.069" r="4"/>
<circle cx="705.668" cy="813.466" r="4"/>
<circle cx="707.58" cy="808.78" r="4"/>
<circle cx="709.492" cy="813.452" r="4"/>
<circle cx="711.404" cy="809.629" r="4"/>
<circle cx="713.316" cy="813.456" r="4"/>
<circle cx="715.228" cy="808.972" r="4"/>
<circle cx="717.14" cy="813.469" r="4"/>
<circle cx="719.052" cy="809.661" r="4"/>
<circle cx="720.964" cy="813.459" r="4"/>
<circle cx="722.876" cy="809.804" r="4"/>
<circle cx="724.788" cy="813.455" r="4"/>
<circle cx="726.7" cy="810.55" r="4"/>
<circle cx="728.612" cy="813.461" r="4"/>
<circle cx="730.524" cy="808.832" r="4"/>
<circle cx="732.436" cy="813.466" r="4"/>
<circle cx="734.348" cy="810.601" r="4"/>
<circle cx="736.26" cy="813.464" r="4"/>
<circle cx="738.172" cy="810.057" r="4"/>
<circle cx="740.084" cy="813.458" r="4"/>
<circle cx="741.996" cy="810.272" r="4"/>
<circle cx="743.908" cy="813.477" r="4"/>
<circle cx="745.82" cy="810.48" r="4"/>
<circle cx="747.732" cy="813.469" r="4"/>
<circle cx="749.644" cy="810.335" r="4"/>
<circle cx="751.556" cy="813.474" r="4"/>
<circle cx="753.468" cy="809.912" r="4"/>
<circle cx="755.38" cy="813.479" r="4"/>
<circle cx="757.292" cy="810.931" r="4"/>
<circle cx="759.204" cy="813.467" r="4"/>
<circle cx="761.116" cy="810.685" r="4"/>
<circle cx="763.028" cy="813.475" r="4"/>
<circle cx="764.94" cy="810.716" r="4"/>
<circle cx="766.852" cy="813.465" r="4"/>
<circle cx="768.764" cy="810.539" r="4"/>
<circle cx="770.676" cy="813.475" r="4"/>
<circle cx="772.588" cy="811.264" r="4"/>
<circle cx="774.5" cy="813.474" r="4"/>
<circle cx="776.412" cy="809.884" r="4"/>
<circle cx="778.324" cy="813.475" r="4"/>
<circle cx="780.236" cy="811.111" r="4"/>
<circle cx="782.148" cy="813.479" r="4"/>
<circle cx="784.06" cy="810.878" r="4"/>
<circle cx="785.972" cy="813.488" r="4"/>
<circle cx="787.884" cy="810.446" r="4"/>
<circle cx="789.796" cy="813.478" r="4"/>
<circle cx="791.708" cy="811.202" r="4"/>
<circle cx="793.62" cy="813.481" r="4"/>
<circle cx="795.532" cy="811.658" r="4"/>
<circle cx="797.444" cy="813.476" r="4"/>
<circle cx="799.356" cy="810.938" r="4"/>
<circle cx="801.268" cy="813.473" r="4"/>
<circle cx="803.18" cy="811.782" r="4"/>
<circle cx="805.092" cy="813.484" r="4"/>
<circle cx="807.004" cy="811.09" r="4"/>
<circle cx="808.916" cy="813.488" r="4"/>
<circle cx="810.828" cy="811.229" r="4"/>
<circle cx="812.74" cy="813.488" r="4"/>
<circle cx="814.652" cy="811.661" r="4"/>
<circle cx="816.564" cy="813.483" r="4"/>
<circle cx="818.476" cy="811.882" r="4"/>
<circle cx="820.388" cy="813.493" r="4"/>
<circle cx="822.3" cy="811.351" r="4"/>
<circle cx="824.212" cy="813.49" r="4"/>
<circle cx="826.124" cy="811.446" r="4"/>
<circle cx="828.036" cy="813.491" r="4"/>
<circle cx="829.948" cy="811.595" r="4"/>
<circle cx="831.86" cy="813.491" r="4"/>
<circle cx="833.772" cy="811.713" r="4"/>
<circle cx="835.684" cy="813.495" r="4"/>
<circle cx="837.596" cy="811.417" r="4"/>
<circle cx="839.508" cy="813.49" r="4"/>
<circle cx="841.42" cy="811.932" r="4"/>
<circle cx="843.332" cy="813.492" r="4"/>
<circle cx="845.244" cy="811.153" r="4"/>
<circle cx="847.156" cy="813.492" r="4"/>
<circle cx="849.068" cy="811.927" r="4"/>
<circle cx="850.98" cy="813.489" r="4"/>
<circle cx="852.892" cy="811.916" r="4"/>
<circle cx="854.804" cy="813.488" r="4"/>
<circle cx="856.716" cy="811.878" r="4"/>
<circle cx="858.628" cy="813.49" r="4"/>
<circle cx="860.54" cy="812.056" r="4"/>
<circle cx="862.452" cy="813.493" r="4"/>
<circle cx="864.364" cy="812.072" r="4"/>
<circle cx="866.276" cy="813.491" r="4"/>
<circle cx="868.188" cy="811.75" r="4"/>
<circle cx="870.1" cy="813.49" r="4"/>
<circle cx="872.012" cy="812.218" r="4"/>
<circle cx="873.924" cy="813.484" r="4"/>
<circle cx="875.836" cy="812.057" r="4"/>
<circle cx="877.748" cy="813.492" r="4"/>
<circle cx="879.66" cy="811.975" r="4"/>
<circle cx="881.572" cy="813.493" r="4"/>
<circle cx="883.484" cy="812.083" r="4"/>
<circle cx="885.396" cy="813.492" r="4"/>
<circle cx="887.308" cy="812.221" r="4"/>
<circle cx="889.22" cy="813.494" r="4"/>
<circle cx="891.132" cy="812.047" r="4"/>
<circle cx="893.044" cy="813.488" r="4"/>
<circle cx="894.956" cy="812.395" r="4"/>
<circle cx="896.868" cy="813.489" r="4"/>
<circle cx="898.78" cy="811.963" r="4"/>
<circle cx="900.692" cy="813.489" r="4"/>
<circle cx="902.604" cy="812.104" r="4"/>
<circle cx="904.516" cy="813.485" r="4"/>
<circle cx="906.428" cy="812.294" r="4"/>
<circle cx="908.34" cy="813.49" r="4"/>
<circle cx="910.252" cy="812.491" r="4"/>
<circle cx="912.164" cy="813.488" r="4"/>
<circle cx="914.076" cy="812.135" r="4"/>
<circle cx="915.988" cy="813.493" r="4"/>
<circle cx="917.9" cy="812.596" r="4"/>
<circle cx="919.812" cy="813.494" r="4"/>
<circle cx="921.724" cy="812.204" r="4"/>
<circle cx="923.636" cy="813.493" r="4"/>
<circle cx="925.548" cy="812.237" r="4"/>
<circle cx="927.46" cy="813.498" r="4"/>
<circle cx="929.372" cy="812.374" r="4"/>
<circle cx="931.284" cy="813.488" r="4"/>
<circle cx="933.196" cy="812.44" r="4"/>
<circle cx="935.108" cy="813.496" r="4"/>
<circle cx="937.02" cy="812.397" r="4"/>
<circle cx="938.932" cy="813.492" r="4"/>
<circle cx="940.844" cy="812.374" r="4"/>
<circle cx="942.756" cy="813.489" r="4"/>
<circle cx="944.668" cy="812.586" r="4"/>
<circle cx="946.58" cy="813.492" r="4"/>
<circle cx="948.492" cy="812.496" r="4"/>
<circle cx="950.404" cy="813.491" r="4"/>
<circle cx="952.316" cy="812.666" r="4"/>
<circle cx="954.228" cy="813.493" r="4"/>
<circle cx="956.14" cy="812.811" r="4"/>
<circle cx="958.052" cy="813.495" r="4"/>
<circle cx="959.964" cy="812.093" r="4"/>
<circle cx="961.876" cy="813.496" r="4"/>
<circle cx="963.788" cy="812.687" r="4"/>
<circle cx="965.7" cy="813.495" r="4"/>
<circle cx="967.612" cy="812.607" r="4"/>
<circle cx="969.524" cy="813.495" r="4"/>
<circle cx="971.436" cy="812.759" r="4"/>
<circle cx="973.348" cy="813.495" r="4"/>
<circle cx="975.26" cy="812.735" r="4"/>
<circle cx="977.172" cy="813.497" r="4"/>
<circle cx="979.084" cy="812.581" r="4"/>
<circle cx="980.996" cy="813.498" r="4"/>
<circle cx="982.908" cy="812.454" r="4"/>
<circle cx="984.82" cy="813.495" r="4"/>
<circle cx="986.732" cy="812.835" r="4"/>
<circle cx="988.644" cy="813.495" r="4"/>
<circle cx="990.556" cy="812.595" r="4"/>
<circle cx="992.468" cy="813.496" r="4"/>
<circle cx="994.38" cy="812.742" r="4"/>
<circle cx="996.292" cy="813.489" r="4"/>
<circle cx="998.204" cy="812.704" r="4"/>
<circle cx="1000.116" cy="813.491" r="4"/>
<circle cx="1002.028" cy="812.86" r="4"/>
<circle cx="1003.94" cy="813.499" r="4"/>
<circle cx="1005.852" cy="812.755" r="4"/>
<circle cx="1007.764" cy="813.498" r="4"/>
<circle cx="1009.676" cy="812.871" r="4"/>
<circle cx="1011.588" cy="813.494" r="4"/>
<circle cx="1013.5" cy="812.816" r="4"/>
<circle cx="1015.412" cy="813.498" r="4"/>
<circle cx="1017.324" cy="812.704" r="4"/>
<circle cx="1019.236" cy="813.498" r="4"/>
<circle cx="1021.148" cy="812.724" r="4"/>
<circle cx="1023.06" cy="813.498" r="4"/>
<circle cx="1024.972" cy="812.749" r="4"/>
<circle cx="1026.884" cy="813.495" r="4"/>
<circle cx="1028.796" cy="812.76" r="4"/>
<circle cx="1030.708" cy="813.491" r="4"/>
<circle cx="1032.62" cy="812.912" r="4"/>
<circle cx="1034.532" cy="813.495" r="4"/>
<circle cx="1036.444" cy="812.811" r="4"/>
<circle cx="1038.356" cy="813.495" r="4"/>
<circle cx="1040.268" cy="812.853" r="4"/>
<circle cx="1042.18" cy="813.494" r="4"/>
<circle cx="1044.092" cy="812.959" r="4"/>
<circle cx="1046.004" cy="813.495" r="4"/>
<circle cx="1047.916" cy="812.973" r="4"/>
<circle cx="1049.828" cy="813.496" r="4"/>
<circle cx="1051.74" cy="812.709" r="4"/>
<circle cx="1053.652" cy="813.495" r="4"/>
<circle cx="1055.564" cy="812.921" r="4"/>
<circle cx="1057.476" cy="813.495" r="4"/>
<circle cx="1059.388" cy="812.946" r="4"/>
<circle cx="1061.3" cy="813.497" r="4"/>
<circle cx="1063.212" cy="812.954" r="4"/>
<circle cx="1065.124" cy="813.498" r="4"/>
<circle cx="1067.036" cy="813.031" r="4"/>
<circle cx="1068.948" cy="813.498" r="4"/>
<circle cx="1070.86" cy="813.036" r="4"/>
<circle cx="1072.772" cy="813.498" r="4"/>
<circle cx="1074.684" cy="812.78" r="4"/>
<circle cx="1076.596" cy="813.497" r="4"/>
<circle cx="1078.508" cy="812.957" r="4"/>
<circle cx="1080.42" cy="813.497" r="4"/>
<circle cx="1082.332" cy="812.888" r="4"/>
<circle cx="1084.244" cy="813.498" r="4"/>
<circle cx="1086.156" cy="812.936" r="4"/>
<circle cx="1088.068" cy="813.498" r="4"/>
<circle cx="1089.98" cy="813.014" r="4"/>
<circle cx="1091.892" cy="813.498" r="4"/>
<circle cx="1093.804" cy="813.009" r="4"/>
<circle cx="1095.716" cy="813.498" r="4"/>
<circle cx="1097.628" cy="813" r="4"/>
<circle cx="1099.54" cy="813.494" r="4"/>
<circle cx="1101.452" cy="813.116" r="4"/>
<circle cx="1103.364" cy="813.495" r="4"/>
<circle cx="1105.276" cy="813.063" r="4"/>
<circle cx="1107.188" cy="813.496" r="4"/>
<circle cx="1109.1" cy="813.085" r="4"/>
<circle cx="1111.012" cy="813.495" r="4"/>
<circle cx="1112.924" cy="812.957" r="4"/>
<circle cx="1114.836" cy="813.498" r="4"/>
<circle cx="1116.748" cy="813.131" r="4"/>
<circle cx="1118.66" cy="813.497" r="4"/>
<circle cx="1120.572" cy="813.051" r="4"/>
<circle cx="1122.484" cy="813.499" r="4"/>
<circle cx="1124.396" cy="812.96" r="4"/>
<circle cx="1126.308" cy="813.495" r="4"/>
<circle cx="1128.22" cy="813.138" r="4"/>
<circle cx="1130.132" cy="813.497" r="4"/>
<circle cx="1132.044" cy="813.037" r="4"/>
<circle cx="1133.956" cy="813.498" r="4"/>
<circle cx="1135.868" cy="813.122" r="4"/>
<circle cx="1137.78" cy="813.497" r="4"/>
<circle cx="1139.692" cy="813.236" r="4"/>
<circle cx="1141.604" cy="813.497" r="4"/>
<circle cx="1143.516" cy="813.033" r="4"/>
<circle cx="1145.428" cy="813.499" r="4"/>
<circle cx="1147.34" cy="813.181" r="4"/>
<circle cx="1149.252" cy="813.498" r="4"/>
<circle cx="1151.164" cy="813.015" r="4"/>
<circle cx="1153.076" cy="813.499" r="4"/>
<circle cx="1154.988" cy="813.103" r="4"/>
<circle cx="1156.9" cy="813.5" r="4"/>
<circle cx="1158.812" cy="813.163" r="4"/>
<circle cx="1160.724" cy="813.497" r="4"/>
<circle cx="1162.636" cy="813.2" r="4"/>
<circle cx="1164.548" cy="813.499" r="4"/>
<circle cx="1166.46" cy="813.126" r="4"/>
<circle cx="1168.372" cy="813.498" r="4"/>
<circle cx="1170.284" cy="813.15" r="4"/>
<circle cx="1172.196" cy="813.498" r="4"/>
<circle cx="1174.108" cy="813.06" r="4"/>
<circle cx="1176.02" cy="813.499" r="4"/>
<circle cx="1177.932" cy="813.154" r="4"/>
<circle cx="1179.844" cy="813.498" r="4"/>
<circle cx="1181.756" cy="813.191" r="4"/>
<circle cx="1183.668" cy="813.5" r="4"/>
<circle cx="1185.58" cy="813.256" r="4"/>
<circle cx="1187.492" cy="813.499" r="4"/>
<circle cx="1189.404" cy="813.118" r="4"/>
<circle cx="1191.316" cy="813.495" r="4"/>
<circle cx="1193.228" cy="813.254" r="4"/>
<circle cx="1195.14" cy="813.498" r="4"/>
<circle cx="1197.052" cy="813.203" r="4"/>
<circle cx="1198.964" cy="813.498" r="4"/>
<circle cx="1200.876" cy="813.196" r="4"/>
<circle cx="1202.788" cy="813.499" r="4"/>
<circle cx="1204.7" cy="813.184" r="4"/>
<circle cx="1206.612" cy="813.499" r="4"/>
<circle cx="1208.524" cy="813.167" r="4"/>
<circle cx="1210.436" cy="813.497" r="4"/>
<circle cx="1212.348" cy="813.181" r="4"/>
<circle cx="1214.26" cy="813.498" r="4"/>
<circle cx="1216.172" cy="813.269" r="4"/>
<circle cx="1218.084" cy="813.498" r="4"/>
<circle cx="1219.996" cy="813.271" r="4"/>
<circle cx="1221.908" cy="813.498" r="4"/>
<circle cx="1223.82" cy="813.13" r="4"/>
<circle cx="1225.732" cy="813.499" r="4"/>
<circle cx="1227.644" cy="813.203" r="4"/>
<circle cx="1229.556" cy="813.5" r="4"/>
<circle cx="1231.468" cy="813.214" r="4"/>
<circle cx="1233.38" cy="813.499" r="4"/>
<circle cx="1235.292" cy="813.132" r="4"/>
<circle cx="1237.204" cy="813.499" r="4"/>
<circle cx="1239.116" cy="813.217" r="4"/>
<circle cx="1241.028" cy="813.499" r="4"/>
<circle cx="1242.94" cy="813.256" r="4"/>
<circle cx="1244.852" cy="813.498" r="4"/>
<circle cx="1246.764" cy="813.209" r="4"/>
<circle cx="1248.676" cy="813.498" r="4"/>
<circle cx="1250.588" cy="813.317" r="4"/>
<circle cx="1252.5" cy="813.5" r="4"/>
</g>
<g fill="#898989">
<circle cx="298.412" cy="813.5" r="4"/>
<circle cx="300.324" cy="813.5" r="4"/>
<circle cx="302.236" cy="813.5" r="4"/>
<circle cx="304.148" cy="813.5" r="4"/>
<circle cx="306.06" cy="813.5" r="4"/>
<circle cx="307.972" cy="813.5" r="4"/>
<circle cx="309.884" cy="813.499" r="4"/>
<circle cx="311.796" cy="813.498" r="4"/>
<circle cx="313.708" cy="813.491" r="4"/>
<circle cx="315.62" cy="813.49" r="4"/>
<circle cx="317.532" cy="813.469" r="4"/>
<circle cx="319.444" cy="813.461" r="4"/>
<circle cx="321.356" cy="813.385" r="4"/>
<circle cx="323.268" cy="813.329" r="4"/>
<circle cx="325.18" cy="813.115" r="4"/>
<circle cx="327.092" cy="813.155" r="4"/>
<circle cx="329.004" cy="812.382" r="4"/>
<circle cx="330.916" cy="812.517" r="4"/>
<circle cx="332.828" cy="810.345" r="4"/>
<circle cx="334.74" cy="812.198" r="4"/>
<circle cx="336.652" cy="808.07" r="4"/>
<circle cx="338.564" cy="809.665" r="4"/>
<circle cx="340.476" cy="799.305" r="4"/>
<circle cx="342.388" cy="810.889" r="4"/>
<circle cx="344.3" cy="795.243" r="4"/>
<circle cx="346.212" cy="804.62" r="4"/>
<circle cx="348.124" cy="768.459" r="4"/>
<circle cx="350.036" cy="809.093" r="4"/>
<circle cx="351.948" cy="773.946" r="4"/>
<circle cx="353.86" cy="802.64" r="4"/>
<circle cx="355.772" cy="712.554" r="4"/>
<circle cx="357.684" cy="807.611" r="4"/>
<circle cx="359.596" cy="748.883" r="4"/>
<circle cx="361.508" cy="802.584" r="4"/>
<circle cx="363.42" cy="653.653" r="4"/>
<circle cx="365.332" cy="806.979" r="4"/>
<circle cx="367.244" cy="722.322" r="4"/>
<circle cx="369.156" cy="804.641" r="4"/>
<circle cx="371.068" cy="609.2" r="4"/>
<circle cx="372.98" cy="807.143" r="4"/>
<circle cx="374.892" cy="697.414" r="4"/>
<circle cx="376.804" cy="806.77" r="4"/>
<circle cx="378.716" cy="592.126" r="4"/>
<circle cx="380.628" cy="807.972" r="4"/>
<circle cx="382.54" cy="677.36" r="4"/>
<circle cx="384.452" cy="807.684" r="4"/>
<circle cx="386.364" cy="603.553" r="4"/>
<circle cx="388.276" cy="807.979" r="4"/>
<circle cx="390.188" cy="667.887" r="4"/>
<circle cx="392.1" cy="808.784" r="4"/>
<circle cx="394.012" cy="618.52" r="4"/>
<circle cx="395.924" cy="808.156" r="4"/>
<circle cx="397.836" cy="662.973" r="4"/>
<circle cx="399.748" cy="809.407" r="4"/>
<circle cx="401.66" cy="639.268" r="4"/>
<circle cx="403.572" cy="808.638" r="4"/>
<circle cx="405.484" cy="665.562" r="4"/>
<circle cx="407.396" cy="809.8" r="4"/>
<circle cx="409.308" cy="654.869" r="4"/>
<circle cx="411.22" cy="809.244" r="4"/>
<circle cx="413.132" cy="665.743" r="4"/>
<circle cx="415.044" cy="809.945" r="4"/>
<circle cx="416.956" cy="667.179" r="4"/>
<circle cx="418.868" cy="809.939" r="4"/>
<circle cx="420.78" cy="673.198" r="4"/>
<circle cx="422.692" cy="810.3" r="4"/>
<circle cx="424.604" cy="677.943" r="4"/>
<circle cx="426.516" cy="810.194" r="4"/>
<circle cx="428.428" cy="673.443" r="4"/>
<circle cx="430.34" cy="810.208" r="4"/>
<circle cx="432.252" cy="678.679" r="4"/>
<circle cx="434.164" cy="810.815" r="4"/>
<circle cx="436.076" cy="687.391" r="4"/>
<circle cx="437.988" cy="810.449" r="4"/>
<circle cx="439.9" cy="690.395" r="4"/>
<circle cx="441.812" cy="811.15" r="4"/>
<circle cx="443.724" cy="685.512" r="4"/>
<circle cx="445.636" cy="811.149" r="4"/>
<circle cx="447.548" cy="688.299" r="4"/>
<circle cx="449.46" cy="811.379" r="4"/>
<circle cx="451.372" cy="703.461" r="4"/>
<circle cx="453.284" cy="811.436" r="4"/>
<circle cx="455.196" cy="699.775" r="4"/>
<circle cx="457.108" cy="811.633" r="4"/>
<circle cx="459.02" cy="703.141" r="4"/>
<circle cx="460.932" cy="811.357" r="4"/>
<circle cx="462.844" cy="699.868" r="4"/>
<circle cx="464.756" cy="811.83" r="4"/>
<circle cx="466.668" cy="712.711" r="4"/>
<circle cx="468.58" cy="811.931" r="4"/>
<circle cx="470.492" cy="712.984" r="4"/>
<circle cx="472.404" cy="811.788" r="4"/>
<circle cx="474.316" cy="718.255" r="4"/>
<circle cx="476.228" cy="811.909" r="4"/>
<circle cx="478.14" cy="708.807" r="4"/>
<circle cx="480.052" cy="812.144" r="4"/>
<circle cx="481.964" cy="727.988" r="4"/>
<circle cx="483.876" cy="811.889" r="4"/>
<circle cx="485.788" cy="724.473" r="4"/>
<circle cx="487.7" cy="812.293" r="4"/>
<circle cx="489.612" cy="725.708" r="4"/>
<circle cx="491.524" cy="812.346" r="4"/>
<circle cx="493.436" cy="723.715" r="4"/>
<circle cx="495.348" cy="812.072" r="4"/>
<circle cx="497.26" cy="740.584" r="4"/>
<circle cx="499.172" cy="812.416" r="4"/>
<circle cx="501.084" cy="731.21" r="4"/>
<circle cx="502.996" cy="812.536" r="4"/>
<circle cx="504.908" cy="742.354" r="4"/>
<circle cx="506.82" cy="812.331" r="4"/>
<circle cx="508.732" cy="738.921" r="4"/>
<circle cx="510.644" cy="812.507" r="4"/>
<circle cx="512.556" cy="741.478" r="4"/>
<circle cx="514.468" cy="812.587" r="4"/>
<circle cx="516.38" cy="745.498" r="4"/>
<circle cx="518.292" cy="812.496" r="4"/>
<circle cx="520.204" cy="754.906" r="4"/>
<circle cx="522.116" cy="812.683" r="4"/>
<circle cx="524.028" cy="742.355" r="4"/>
<circle cx="525.94" cy="812.783" r="4"/>
<circle cx="527.852" cy="756.882" r="4"/>
<circle cx="529.764" cy="812.571" r="4"/>
<circle cx="531.676" cy="754.519" r="4"/>
<circle cx="533.588" cy="812.673" r="4"/>
<circle cx="535.5" cy="753.192" r="4"/>
<circle cx="537.412" cy="812.86" r="4"/>
<circle cx="539.324" cy="757.575" r="4"/>
<circle cx="541.236" cy="812.728" r="4"/>
<circle cx="543.148" cy="763.36" r="4"/>
<circle cx="545.06" cy="812.878" r="4"/>
<circle cx="546.972" cy="756.325" r="4"/>
<circle cx="548.884" cy="812.752" r="4"/>
<circle cx="550.796" cy="766.871" r="4"/>
<circle cx="552.708" cy="812.745" r="4"/>
<circle cx="554.62" cy="765.229" r="4"/>
<circle cx="556.532" cy="812.905" r="4"/>
<circle cx="558.444" cy="760.095" r="4"/>
<circle cx="560.356" cy="812.915" r="4"/>
<circle cx="562.268" cy="767.914" r="4"/>
<circle cx="564.18" cy="812.874" r="4"/>
<circle cx="566.092" cy="774.247" r="4"/>
<circle cx="568.004" cy="812.876" r="4"/>
<circle cx="569.916" cy="765.761" r="4"/>
<circle cx="571.828" cy="812.946" r="4"/>
<circle cx="573.74" cy="775.694" r="4"/>
<circle cx="575.652" cy="812.914" r="4"/>
<circle cx="577.564" cy="772.552" r="4"/>
<circle cx="579.476" cy="812.954" r="4"/>
<circle cx="581.388" cy="771.536" r="4"/>
<circle cx="583.3" cy="813.06" r="4"/>
<circle cx="585.212" cy="776.538" r="4"/>
<circle cx="587.124" cy="812.829" r="4"/>
<circle cx="589.036" cy="779.95" r="4"/>
<circle cx="590.948" cy="813.117" r="4"/>
<circle cx="592.86" cy="774.583" r="4"/>
<circle cx="594.772" cy="813.108" r="4"/>
<circle cx="596.684" cy="780.256" r="4"/>
<circle cx="598.596" cy="813.044" r="4"/>
<circle cx="600.508" cy="780.554" r="4"/>
<circle cx="602.42" cy="813.164" r="4"/>
<circle cx="604.332" cy="778.051" r="4"/>
<circle cx="606.244" cy="813.109" r="4"/>
<circle cx="608.156" cy="782.277" r="4"/>
<circle cx="610.068" cy="813.11" r="4"/>
<circle cx="611.98" cy="787.17" r="4"/>
<circle cx="613.892" cy="813.169" r="4"/>
<circle cx="615.804" cy="779.451" r="4"/>
<circle cx="617.716" cy="813.167" r="4"/>
<circle cx="619.628" cy="785.959" r="4"/>
<circle cx="621.54" cy="813.158" r="4"/>
<circle cx="623.452" cy="785.734" r="4"/>
<circle cx="625.364" cy="813.156" r="4"/>
<circle cx="627.276" cy="785.274" r="4"/>
<circle cx="629.188" cy="813.224" r="4"/>
<circle cx="631.1" cy="787.482" r="4"/>
<circle cx="633.012" cy="813.146" r="4"/>
<circle cx="634.924" cy="788.554" r="4"/>
<circle cx="636.836" cy="813.25" r="4"/>
<circle cx="638.748" cy="784.78" r="4"/>
<circle cx="640.66" cy="813.292" r="4"/>
<circle cx="642.572" cy="791.672" r="4"/>
<circle cx="644.484" cy="813.183" r="4"/>
<circle cx="646.396" cy="789.282" r="4"/>
<circle cx="648.308" cy="813.269" r="4"/>
<circle cx="650.22" cy="789.467" r="4"/>
<circle cx="652.132" cy="813.243" r="4"/>
<circle cx="654.044" cy="790.349" r="4"/>
<circle cx="655.956" cy="813.248" r="4"/>
<circle cx="657.868" cy="794.007" r="4"/>
<circle cx="659.78" cy="813.291" r="4"/>
<circle cx="661.692" cy="788.823" r="4"/>
<circle cx="663.604" cy="813.269" r="4"/>
<circle cx="665.516" cy="794.584" r="4"/>
<circle cx="667.428" cy="813.272" r="4"/>
<circle cx="669.34" cy="793.195" r="4"/>
<circle cx="671.252" cy="813.343" r="4"/>
<circle cx="673.164" cy="790.849" r="4"/>
<circle cx="675.076" cy="813.286" r="4"/>
<circle cx="676.988" cy="794.951" r="4"/>
<circle cx="678.9" cy="813.281" r="4"/>
<circle cx="680.812" cy="797.185" r="4"/>
<circle cx="682.724" cy="813.298" r="4"/>
<circle cx="684.636" cy="791.857" r="4"/>
<circle cx="686.548" cy="813.332" r="4"/>
<circle cx="688.46" cy="797.874" r="4"/>
<circle cx="690.372" cy="813.305" r="4"/>
<circle cx="692.284" cy="794.782" r="4"/>
<circle cx="694.196" cy="813.351" r="4"/>
<circle cx="696.108" cy="795.698" r="4"/>
<circle cx="698.02" cy="813.353" r="4"/>
<circle cx="699.932" cy="797.866" r="4"/>
<circle cx="701.844" cy="813.319" r="4"/>
<circle cx="703.756" cy="800.686" r="4"/>
<circle cx="705.668" cy="813.301" r="4"/>
<circle cx="707.58" cy="795.161" r="4"/>
<circle cx="709.492" cy="813.373" r="4"/>
<circle cx="711.404" cy="798.09" r="4"/>
<circle cx="713.316" cy="813.309" r="4"/>
<circle cx="715.228" cy="797.976" r="4"/>
<circle cx="717.14" cy="813.369" r="4"/>
<circle cx="719.052" cy="798.364" r="4"/>
<circle cx="720.964" cy="813.313" r="4"/>
<circle cx="722.876" cy="799.609" r="4"/>
<circle cx="724.788" cy="813.349" r="4"/>
<circle cx="726.7" cy="802.116" r="4"/>
<circle cx="728.612" cy="813.36" r="4"/>
<circle cx="730.524" cy="797.602" r="4"/>
<circle cx="732.436" cy="813.369" r="4"/>
<circle cx="734.348" cy="801.661" r="4"/>
<circle cx="736.26" cy="813.354" r="4"/>
<circle cx="738.172" cy="801.21" r="4"/>
<circle cx="740.084" cy="813.362" r="4"/>
<circle cx="741.996" cy="800.998" r="4"/>
<circle cx="743.908" cy="813.359" r="4"/>
<circle cx="745.82" cy="800.909" r="4"/>
<circle cx="747.732" cy="813.384" r="4"/>
<circle cx="749.644" cy="801.777" r="4"/>
<circle cx="751.556" cy="813.373" r="4"/>
<circle cx="753.468" cy="798.962" r="4"/>
<circle cx="755.38" cy="813.408" r="4"/>
<circle cx="757.292" cy="803.788" r="4"/>
<circle cx="759.204" cy="813.377" r="4"/>
<circle cx="761.116" cy="802.028" r="4"/>
<circle cx="763.028" cy="813.392" r="4"/>
<circle cx="764.94" cy="803.455" r="4"/>
<circle cx="766.852" cy="813.396" r="4"/>
<circle cx="768.764" cy="802.385" r="4"/>
<circle cx="770.676" cy="813.384" r="4"/>
<circle cx="772.588" cy="804.816" r="4"/>
<circle cx="774.5" cy="813.419" r="4"/>
<circle cx="776.412" cy="801.702" r="4"/>
<circle cx="778.324" cy="813.405" r="4"/>
<circle cx="780.236" cy="804.426" r="4"/>
<circle cx="782.148" cy="813.407" r="4"/>
<circle cx="784.06" cy="803.609" r="4"/>
<circle cx="785.972" cy="813.432" r="4"/>
<circle cx="787.884" cy="802.331" r="4"/>
<circle cx="789.796" cy="813.415" r="4"/>
<circle cx="791.708" cy="803.906" r="4"/>
<circle cx="793.62" cy="813.415" r="4"/>
<circle cx="795.532" cy="806.04" r="4"/>
<circle cx="797.444" cy="813.415" r="4"/>
<circle cx="799.356" cy="803.193" r="4"/>
<circle cx="801.268" cy="813.418" r="4"/>
<circle cx="803.18" cy="806.626" r="4"/>
<circle cx="805.092" cy="813.412" r="4"/>
<circle cx="807.004" cy="802.746" r="4"/>
<circle cx="808.916" cy="813.446" r="4"/>
<circle cx="810.828" cy="805.135" r="4"/>
<circle cx="812.74" cy="813.43" r="4"/>
<circle cx="814.652" cy="805.559" r="4"/>
<circle cx="816.564" cy="813.438" r="4"/>
<circle cx="818.476" cy="806.964" r="4"/>
<circle cx="820.388" cy="813.452" r="4"/>
<circle cx="822.3" cy="804.574" r="4"/>
<circle cx="824.212" cy="813.455" r="4"/>
<circle cx="826.124" cy="806.057" r="4"/>
<circle cx="828.036" cy="813.443" r="4"/>
<circle cx="829.948" cy="805.715" r="4"/>
<circle cx="831.86" cy="813.463" r="4"/>
<circle cx="833.772" cy="806.877" r="4"/>
<circle cx="835.684" cy="813.42" r="4"/>
<circle cx="837.596" cy="806.279" r="4"/>
<circle cx="839.508" cy="813.46" r="4"/>
<circle cx="841.42" cy="807.774" r="4"/>
<circle cx="843.332" cy="813.462" r="4"/>
<circle cx="845.244" cy="804.513" r="4"/>
<circle cx="847.156" cy="813.463" r="4"/>
<circle cx="849.068" cy="807.629" r="4"/>
<circle cx="850.98" cy="813.428" r="4"/>
<circle cx="852.892" cy="807.031" r="4"/>
<circle cx="854.804" cy="813.453" r="4"/>
<circle cx="856.716" cy="807.13" r="4"/>
<circle cx="858.628" cy="813.444" r="4"/>
<circle cx="860.54" cy="807.755" r="4"/>
<circle cx="862.452" cy="813.449" r="4"/>
<circle cx="864.364" cy="807.865" r="4"/>
<circle cx="866.276" cy="813.45" r="4"/>
<circle cx="868.188" cy="805.254" r="4"/>
<circle cx="870.1" cy="813.468" r="4"/>
<circle cx="872.012" cy="808.824" r="4"/>
<circle cx="873.924" cy="813.442" r="4"/>
<circle cx="875.836" cy="807.332" r="4"/>
<circle cx="877.748" cy="813.459" r="4"/>
<circle cx="879.66" cy="807.628" r="4"/>
<circle cx="881.572" cy="813.457" r="4"/>
<circle cx="883.484" cy="807.309" r="4"/>
<circle cx="885.396" cy="813.453" r="4"/>
<circle cx="887.308" cy="809.114" r="4"/>
<circle cx="889.22" cy="813.46" r="4"/>
<circle cx="891.132" cy="807.068" r="4"/>
<circle cx="893.044" cy="813.45" r="4"/>
<circle cx="894.956" cy="809.268" r="4"/>
<circle cx="896.868" cy="813.464" r="4"/>
<circle cx="898.78" cy="807.857" r="4"/>
<circle cx="900.692" cy="813.446" r="4"/>
<circle cx="902.604" cy="807.93" r="4"/>
<circle cx="904.516" cy="813.46" r="4"/>
<circle cx="906.428" cy="808.87" r="4"/>
<circle cx="908.34" cy="813.45" r="4"/>
<circle cx="910.252" cy="809.47" r="4"/>
<circle cx="912.164" cy="813.451" r="4"/>
<circle cx="914.076" cy="808.134" r="4"/>
<circle cx="915.988" cy="813.457" r="4"/>
<circle cx="917.9" cy="809.6" r="4"/>
<circle cx="919.812" cy="813.452" r="4"/>
<circle cx="921.724" cy="808.379" r="4"/>
<circle cx="923.636" cy="813.479" r="4"/>
<circle cx="925.548" cy="809.172" r="4"/>
<circle cx="927.46" cy="813.472" r="4"/>
<circle cx="929.372" cy="807.977" r="4"/>
<circle cx="931.284" cy="813.46" r="4"/>
<circle cx="933.196" cy="809.899" r="4"/>
<circle cx="935.108" cy="813.469" r="4"/>
<circle cx="937.02" cy="808.528" r="4"/>
<circle cx="938.932" cy="813.474" r="4"/>
<circle cx="940.844" cy="809.535" r="4"/>
<circle cx="942.756" cy="813.473" r="4"/>
<circle cx="944.668" cy="809.203" r="4"/>
<circle cx="946.58" cy="813.465" r="4"/>
<circle cx="948.492" cy="809.71" r="4"/>
<circle cx="950.404" cy="813.443" r="4"/>
<circle cx="952.316" cy="809.783" r="4"/>
<circle cx="954.228" cy="813.464" r="4"/>
<circle cx="956.14" cy="810.557" r="4"/>
<circle cx="958.052" cy="813.475" r="4"/>
<circle cx="959.964" cy="808.139" r="4"/>
<circle cx="961.876" cy="813.476" r="4"/>
<circle cx="963.788" cy="810.039" r="4"/>
<circle cx="965.7" cy="813.476" r="4"/>
<circle cx="967.612" cy="810.111" r="4"/>
<circle cx="969.524" cy="813.468" r="4"/>
<circle cx="971.436" cy="810.205" r="4"/>
<circle cx="973.348" cy="813.478" r="4"/>
<circle cx="975.26" cy="810.045" r="4"/>
<circle cx="977.172" cy="813.474" r="4"/>
<circle cx="979.084" cy="810.199" r="4"/>
<circle cx="980.996" cy="813.48" r="4"/>
<circle cx="982.908" cy="809.26" r="4"/>
<circle cx="984.82" cy="813.478" r="4"/>
<circle cx="986.732" cy="810.66" r="4"/>
<circle cx="988.644" cy="813.474" r="4"/>
<circle cx="990.556" cy="809.458" r="4"/>
<circle cx="992.468" cy="813.473" r="4"/>
<circle cx="994.38" cy="810.345" r="4"/>
<circle cx="996.292" cy="813.474" r="4"/>
<circle cx="998.204" cy="810.025" r="4"/>
<circle cx="1000.116" cy="813.459" r="4"/>
<circle cx="1002.028" cy="810.866" r="4"/>
<circle cx="1003.94" cy="813.474" r="4"/>
<circle cx="1005.852" cy="810.215" r="4"/>
<circle cx="1007.764" cy="813.479" r="4"/>
<circle cx="1009.676" cy="811.203" r="4"/>
<circle cx="1011.588" cy="813.474" r="4"/>
<circle cx="1013.5" cy="810.48" r="4"/>
<circle cx="1015.412" cy="813.481" r="4"/>
<circle cx="1017.324" cy="810.314" r="4"/>
<circle cx="1019.236" cy="813.487" r="4"/>
<circle cx="1021.148" cy="810.371" r="4"/>
<circle cx="1023.06" cy="813.482" r="4"/>
<circle cx="1024.972" cy="811.201" r="4"/>
<circle cx="1026.884" cy="813.482" r="4"/>
<circle cx="1028.796" cy="810.13" r="4"/>
<circle cx="1030.708" cy="813.479" r="4"/>
<circle cx="1032.62" cy="811.394" r="4"/>
<circle cx="1034.532" cy="813.474" r="4"/>
<circle cx="1036.444" cy="810.279" r="4"/>
<circle cx="1038.356" cy="813.481" r="4"/>
<circle cx="1040.268" cy="811.16" r="4"/>
<circle cx="1042.18" cy="813.481" r="4"/>
<circle cx="1044.092" cy="811.043" r="4"/>
<circle cx="1046.004" cy="813.477" r="4"/>
<circle cx="1047.916" cy="811.523" r="4"/>
<circle cx="1049.828" cy="813.465" r="4"/>
<circle cx="1051.74" cy="810.039" r="4"/>
<circle cx="1053.652" cy="813.487" r="4"/>
<circle cx="1055.564" cy="810.979" r="4"/>
<circle cx="1057.476" cy="813.479" r="4"/>
<circle cx="1059.388" cy="811.129" r="4"/>
<circle cx="1061.3" cy="813.486" r="4"/>
<circle cx="1063.212" cy="811.347" r="4"/>
<circle cx="1065.124" cy="813.485" r="4"/>
<circle cx="1067.036" cy="811.376" r="4"/>
<circle cx="1068.948" cy="813.488" r="4"/>
<circle cx="1070.86" cy="811.728" r="4"/>
<circle cx="1072.772" cy="813.493" r="4"/>
<circle cx="1074.684" cy="810.187" r="4"/>
<circle cx="1076.596" cy="813.492" r="4"/>
<circle cx="1078.508" cy="811.642" r="4"/>
<circle cx="1080.42" cy="813.488" r="4"/>
<circle cx="1082.332" cy="810.689" r="4"/>
<circle cx="1084.244" cy="813.486" r="4"/>
<circle cx="1086.156" cy="811.209" r="4"/>
<circle cx="1088.068" cy="813.492" r="4"/>
<circle cx="1089.98" cy="811.427" r="4"/>
<circle cx="1091.892" cy="813.49" r="4"/>
<circle cx="1093.804" cy="811.489" r="4"/>
<circle cx="1095.716" cy="813.488" r="4"/>
<circle cx="1097.628" cy="811.014" r="4"/>
<circle cx="1099.54" cy="813.484" r="4"/>
<circle cx="1101.452" cy="811.811" r="4"/>
<circle cx="1103.364" cy="813.477" r="4"/>
<circle cx="1105.276" cy="811.601" r="4"/>
<circle cx="1107.188" cy="813.479" r="4"/>
<circle cx="1109.1" cy="811.81" r="4"/>
<circle cx="1111.012" cy="813.473" r="4"/>
<circle cx="1112.924" cy="811.074" r="4"/>
<circle cx="1114.836" cy="813.484" r="4"/>
<circle cx="1116.748" cy="811.954" r="4"/>
<circle cx="1118.66" cy="813.491" r="4"/>
<circle cx="1120.572" cy="811.434" r="4"/>
<circle cx="1122.484" cy="813.488" r="4"/>
<circle cx="1124.396" cy="811.938" r="4"/>
<circle cx="1126.308" cy="813.491" r="4"/>
<circle cx="1128.22" cy="811.58" r="4"/>
<circle cx="1130.132" cy="813.491" r="4"/>
<circle cx="1132.044" cy="811.714" r="4"/>
<circle cx="1133.956" cy="813.489" r="4"/>
<circle cx="1135.868" cy="811.892" r="4"/>
<circle cx="1137.78" cy="813.486" r="4"/>
<circle cx="1139.692" cy="812.284" r="4"/>
<circle cx="1141.604" cy="813.485" r="4"/>
<circle cx="1143.516" cy="811.389" r="4"/>
<circle cx="1145.428" cy="813.489" r="4"/>
<circle cx="1147.34" cy="812.256" r="4"/>
<circle cx="1149.252" cy="813.485" r="4"/>
<circle cx="1151.164" cy="811.449" r="4"/>
<circle cx="1153.076" cy="813.493" r="4"/>
<circle cx="1154.988" cy="811.815" r="4"/>
<circle cx="1156.9" cy="813.491" r="4"/>
<circle cx="1158.812" cy="811.977" r="4"/>
<circle cx="1160.724" cy="813.491" r="4"/>
<circle cx="1162.636" cy="812.17" r="4"/>
<circle cx="1164.548" cy="813.488" r="4"/>
<circle cx="1166.46" cy="811.868" r="4"/>
<circle cx="1168.372" cy="813.493" r="4"/>
<circle cx="1170.284" cy="812.037" r="4"/>
<circle cx="1172.196" cy="813.487" r="4"/>
<circle cx="1174.108" cy="811.153" r="4"/>
<circle cx="1176.02" cy="813.495" r="4"/>
<circle cx="1177.932" cy="812.079" r="4"/>
<circle cx="1179.844" cy="813.493" r="4"/>
<circle cx="1181.756" cy="812.171" r="4"/>
<circle cx="1183.668" cy="813.493" r="4"/>
<circle cx="1185.58" cy="812.327" r="4"/>
<circle cx="1187.492" cy="813.497" r="4"/>
<circle cx="1189.404" cy="811.779" r="4"/>
<circle cx="1191.316" cy="813.491" r="4"/>
<circle cx="1193.228" cy="812.387" r="4"/>
<circle cx="1195.14" cy="813.484" r="4"/>
<circle cx="1197.052" cy="812.222" r="4"/>
<circle cx="1198.964" cy="813.493" r="4"/>
<circle cx="1200.876" cy="812.29" r="4"/>
<circle cx="1202.788" cy="813.491" r="4"/>
<circle cx="1204.7" cy="811.944" r="4"/>
<circle cx="1206.612" cy="813.495" r="4"/>
<circle cx="1208.524" cy="812.141" r="4"/>
<circle cx="1210.436" cy="813.493" r="4"/>
<circle cx="1212.348" cy="811.942" r="4"/>
<circle cx="1214.26" cy="813.488" r="4"/>
<circle cx="1216.172" cy="812.492" r="4"/>
<circle cx="1218.084" cy="813.494" r="4"/>
<circle cx="1219.996" cy="812.249" r="4"/>
<circle cx="1221.908" cy="813.494" r="4"/>
<circle cx="1223.82" cy="812.233" r="4"/>
<circle cx="1225.732" cy="813.491" r="4"/>
<circle cx="1227.644" cy="811.973" r="4"/>
<circle cx="1229.556" cy="813.494" r="4"/>
<circle cx="1231.468" cy="812.525" r="4"/>
<circle cx="1233.38" cy="813.497" r="4"/>
<circle cx="1235.292" cy="811.785" r="4"/>
<circle cx="1237.204" cy="813.497" r="4"/>
<circle cx="1239.116" cy="812.427" r="4"/>
<circle cx="1241.028" cy="813.494" r="4"/>
<circle cx="1242.94" cy="812.287" r="4"/>
<circle cx="1244.852" cy="813.495" r="4"/>
<circle cx="1246.764" cy="812.356" r="4"/>
<circle cx="1248.676" cy="813.49" r="4"/>
<circle cx="1250.588" cy="812.387" r="4"/>
<circle cx="1252.5" cy="813.496" r="4"/>
</g>
<g fill="#000">
<circle cx="298.412" cy="813.5" r="4"/>
<circle cx="300.324" cy="813.5" r="4"/>
<circle cx="302.236" cy="813.5" r="4"/>
<circle cx="304.148" cy="813.5" r="4"/>
<circle cx="306.06" cy="813.5" r="4"/>
<circle cx="307.972" cy="813.499" r="4"/>
<circle cx="309.884" cy="813.5" r="4"/>
<circle cx="311.796" cy="813.5" r="4"/>
<circle cx="313.708" cy="813.495" r="4"/>
<circle cx="315.62" cy="813.487" r="4"/>
<circle cx="317.532" cy="813.472" r="4"/>
<circle cx="319.444" cy="813.451" r="4"/>
<circle cx="321.356" cy="813.38" r="4"/>
<circle cx="323.268" cy="813.358" r="4"/>
<circle cx="325.18" cy="813.066" r="4"/>
<circle cx="327.092" cy="812.96" r="4"/>
<circle cx="329.004" cy="812.094" r="4"/>
<circle cx="330.916" cy="812.43" r="4"/>
<circle cx="332.828" cy="809.935" r="4"/>
<circle cx="334.74" cy="810.47" r="4"/>
<circle cx="336.652" cy="803.916" r="4"/>
<circle cx="338.564" cy="809.74" r="4"/>
<circle cx="340.476" cy="797.19" r="4"/>
<circle cx="342.388" cy="802.591" r="4"/>
<circle cx="344.3" cy="772.264" r="4"/>
<circle cx="346.212" cy="806.053" r="4"/>
<circle cx="348.124" cy="763.073" r="4"/>
<circle cx="350.036" cy="790.526" r="4"/>
<circle cx="351.948" cy="693.293" r="4"/>
<circle cx="353.86" cy="801.349" r="4"/>
<circle cx="355.772" cy="707.792" r="4"/>
<circle cx="357.684" cy="784.676" r="4"/>
<circle cx="359.596" cy="552.997" r="4"/>
<circle cx="361.508" cy="797.456" r="4"/>
<circle cx="363.42" cy="640.025" r="4"/>
<circle cx="365.332" cy="783.794" r="4"/>
<circle cx="367.244" cy="401.751" r="4"/>
<circle cx="369.156" cy="795.244" r="4"/>
<circle cx="371.068" cy="566.787" r="4"/>
<circle cx="372.98" cy="788.123" r="4"/>
<circle cx="374.892" cy="281.87" r="4"/>
<circle cx="376.804" cy="795.356" r="4"/>
<circle cx="378.716" cy="500.121" r="4"/>
<circle cx="380.628" cy="793.422" r="4"/>
<circle cx="382.54" cy="230.899" r="4"/>
<circle cx="384.452" cy="797.286" r="4"/>
<circle cx="386.364" cy="444.013" r="4"/>
<circle cx="388.276" cy="796.512" r="4"/>
<circle cx="390.188" cy="246.279" r="4"/>
<circle cx="392.1" cy="797.073" r="4"/>
<circle cx="394.012" cy="414.354" r="4"/>
<circle cx="395.924" cy="799.701" r="4"/>
<circle cx="397.836" cy="282.72" r="4"/>
<circle cx="399.748" cy="798.126" r="4"/>
<circle cx="401.66" cy="394.292" r="4"/>
<circle cx="403.572" cy="801.223" r="4"/>
<circle cx="405.484" cy="329.712" r="4"/>
<circle cx="407.396" cy="799.017" r="4"/>
<circle cx="409.308" cy="392.003" r="4"/>
<circle cx="411.22" cy="802.587" r="4"/>
<circle cx="413.132" cy="380.465" r="4"/>
<circle cx="415.044" cy="800.246" r="4"/>
<circle cx="416.956" cy="396.519" r="4"/>
<circle cx="418.868" cy="803.206" r="4"/>
<circle cx="420.78" cy="405.724" r="4"/>
<circle cx="422.692" cy="802.123" r="4"/>
<circle cx="424.604" cy="396.505" r="4"/>
<circle cx="426.516" cy="803.295" r="4"/>
<circle cx="428.428" cy="449.055" r="4"/>
<circle cx="430.34" cy="803.424" r="4"/>
<circle cx="432.252" cy="409.425" r="4"/>
<circle cx="434.164" cy="804.019" r="4"/>
<circle cx="436.076" cy="450.603" r="4"/>
<circle cx="437.988" cy="803.899" r="4"/>
<circle cx="439.9" cy="415.089" r="4"/>
<circle cx="441.812" cy="804.938" r="4"/>
<circle cx="443.724" cy="482.814" r="4"/>
<circle cx="445.636" cy="806.029" r="4"/>
<circle cx="447.548" cy="439.401" r="4"/>
<circle cx="449.46" cy="805.356" r="4"/>
<circle cx="451.372" cy="483.918" r="4"/>
<circle cx="453.284" cy="806.635" r="4"/>
<circle cx="455.196" cy="436.097" r="4"/>
<circle cx="457.108" cy="807.018" r="4"/>
<circle cx="459.02" cy="517.873" r="4"/>
<circle cx="460.932" cy="806.616" r="4"/>
<circle cx="462.844" cy="479.109" r="4"/>
<circle cx="464.756" cy="807.581" r="4"/>
<circle cx="466.668" cy="507.897" r="4"/>
<circle cx="468.58" cy="807.985" r="4"/>
<circle cx="470.492" cy="468.026" r="4"/>
<circle cx="472.404" cy="807.225" r="4"/>
<circle cx="474.316" cy="549.206" r="4"/>
<circle cx="476.228" cy="808.338" r="4"/>
<circle cx="478.14" cy="497.732" r="4"/>
<circle cx="480.052" cy="808.826" r="4"/>
<circle cx="481.964" cy="547.901" r="4"/>
<circle cx="483.876" cy="808.071" r="4"/>
<circle cx="485.788" cy="507.083" r="4"/>
<circle cx="487.7" cy="809.106" r="4"/>
<circle cx="489.612" cy="563.436" r="4"/>
<circle cx="491.524" cy="809.019" r="4"/>
<circle cx="493.436" cy="539.06" r="4"/>
<circle cx="495.348" cy="808.591" r="4"/>
<circle cx="497.26" cy="579.603" r="4"/>
<circle cx="499.172" cy="809.477" r="4"/>
<circle cx="501.084" cy="525.876" r="4"/>
<circle cx="502.996" cy="809.935" r="4"/>
<circle cx="504.908" cy="601.917" r="4"/>
<circle cx="506.82" cy="809.386" r="4"/>
<circle cx="508.732" cy="571.052" r="4"/>
<circle cx="510.644" cy="810.246" r="4"/>
<circle cx="512.556" cy="597.46" r="4"/>
<circle cx="514.468" cy="810.148" r="4"/>
<circle cx="516.38" cy="575.827" r="4"/>
<circle cx="518.292" cy="809.732" r="4"/>
<circle cx="520.204" cy="629.995" r="4"/>
<circle cx="522.116" cy="810.329" r="4"/>
<circle cx="524.028" cy="580.491" r="4"/>
<circle cx="525.94" cy="810.91" r="4"/>
<circle cx="527.852" cy="637.141" r="4"/>
<circle cx="529.764" cy="809.994" r="4"/>
<circle cx="531.676" cy="607.795" r="4"/>
<circle cx="533.588" cy="810.915" r="4"/>
<circle cx="535.5" cy="633.974" r="4"/>
<circle cx="537.412" cy="810.715" r="4"/>
<circle cx="539.324" cy="618.705" r="4"/>
<circle cx="541.236" cy="810.645" r="4"/>
<circle cx="543.148" cy="658.772" r="4"/>
<circle cx="545.06" cy="811.132" r="4"/>
<circle cx="546.972" cy="607.845" r="4"/>
<circle cx="548.884" cy="811.411" r="4"/>
<circle cx="550.796" cy="668.008" r="4"/>
<circle cx="552.708" cy="810.607" r="4"/>
<circle cx="554.62" cy="642.96" r="4"/>
<circle cx="556.532" cy="811.459" r="4"/>
<circle cx="558.444" cy="662.153" r="4"/>
<circle cx="560.356" cy="811.329" r="4"/>
<circle cx="562.268" cy="648.708" r="4"/>
<circle cx="564.18" cy="811.139" r="4"/>
<circle cx="566.092" cy="688.544" r="4"/>
<circle cx="568.004" cy="811.144" r="4"/>
<circle cx="569.916" cy="639.881" r="4"/>
<circle cx="571.828" cy="811.625" r="4"/>
<circle cx="573.74" cy="692.178" r="4"/>
<circle cx="575.652" cy="811.176" r="4"/>
<circle cx="577.564" cy="672.234" r="4"/>
<circle cx="579.476" cy="811.767" r="4"/>
<circle cx="581.388" cy="682.401" r="4"/>
<circle cx="583.3" cy="811.556" r="4"/>
<circle cx="585.212" cy="678.321" r="4"/>
<circle cx="587.124" cy="811.581" r="4"/>
<circle cx="589.036" cy="708.6" r="4"/>
<circle cx="590.948" cy="811.733" r="4"/>
<circle cx="592.86" cy="669.145" r="4"/>
<circle cx="594.772" cy="812.149" r="4"/>
<circle cx="596.684" cy="713.625" r="4"/>
<circle cx="598.596" cy="811.684" r="4"/>
<circle cx="600.508" cy="689.489" r="4"/>
<circle cx="602.42" cy="812.236" r="4"/>
<circle cx="604.332" cy="703.954" r="4"/>
<circle cx="606.244" cy="811.847" r="4"/>
<circle cx="608.156" cy="702.416" r="4"/>
<circle cx="610.068" cy="811.981" r="4"/>
<circle cx="611.98" cy="726.077" r="4"/>
<circle cx="613.892" cy="812.147" r="4"/>
<circle cx="615.804" cy="686.205" r="4"/>
<circle cx="617.716" cy="812.32" r="4"/>
<circle cx="619.628" cy="727.677" r="4"/>
<circle cx="621.54" cy="811.981" r="4"/>
<circle cx="623.452" cy="714.06" r="4"/>
<circle cx="625.364" cy="812.268" r="4"/>
<circle cx="627.276" cy="718.745" r="4"/>
<circle cx="629.188" cy="812.302" r="4"/>
<circle cx="631.1" cy="719.845" r="4"/>
<circle cx="633.012" cy="812.35" r="4"/>
<circle cx="634.924" cy="735.671" r="4"/>
<circle cx="636.836" cy="812.452" r="4"/>
<circle cx="638.748" cy="708.337" r="4"/>
<circle cx="640.66" cy="812.631" r="4"/>
<circle cx="642.572" cy="740.837" r="4"/>
<circle cx="644.484" cy="812.034" r="4"/>
<circle cx="646.396" cy="726.178" r="4"/>
<circle cx="648.308" cy="812.563" r="4"/>
<circle cx="650.22" cy="733.59" r="4"/>
<circle cx="652.132" cy="812.6" r="4"/>
<circle cx="654.044" cy="726.131" r="4"/>
<circle cx="655.956" cy="812.486" r="4"/>
<circle cx="657.868" cy="747.742" r="4"/>
<circle cx="659.78" cy="812.647" r="4"/>
<circle cx="661.692" cy="725.357" r="4"/>
<circle cx="663.604" cy="812.655" r="4"/>
<circle cx="665.516" cy="747.326" r="4"/>
<circle cx="667.428" cy="812.521" r="4"/>
<circle cx="669.34" cy="741.691" r="4"/>
<circle cx="671.252" cy="812.804" r="4"/>
<circle cx="673.164" cy="742.062" r="4"/>
<circle cx="675.076" cy="812.746" r="4"/>
<circle cx="676.988" cy="741.476" r="4"/>
<circle cx="678.9" cy="812.691" r="4"/>
<circle cx="680.812" cy="758.872" r="4"/>
<circle cx="682.724" cy="812.651" r="4"/>
<circle cx="684.636" cy="736.242" r="4"/>
<circle cx="686.548" cy="812.778" r="4"/>
<circle cx="688.46" cy="758.573" r="4"/>
<circle cx="690.372" cy="812.639" r="4"/>
<circle cx="692.284" cy="741.16" r="4"/>
<circle cx="694.196" cy="812.89" r="4"/>
<circle cx="696.108" cy="750.774" r="4"/>
<circle cx="698.02" cy="812.895" r="4"/>
<circle cx="699.932" cy="756.099" r="4"/>
<circle cx="701.844" cy="812.603" r="4"/>
<circle cx="703.756" cy="765.418" r="4"/>
<circle cx="705.668" cy="812.846" r="4"/>
<circle cx="707.58" cy="750.441" r="4"/>
<circle cx="709.492" cy="812.844" r="4"/>
<circle cx="711.404" cy="763.024" r="4"/>
<circle cx="713.316" cy="812.843" r="4"/>
<circle cx="715.228" cy="755.901" r="4"/>
<circle cx="717.14" cy="812.936" r="4"/>
<circle cx="719.052" cy="761.071" r="4"/>
<circle cx="720.964" cy="812.843" r="4"/>
<circle cx="722.876" cy="761.182" r="4"/>
<circle cx="724.788" cy="812.845" r="4"/>
<circle cx="726.7" cy="772.372" r="4"/>
<circle cx="728.612" cy="813.006" r="4"/>
<circle cx="730.524" cy="750.615" r="4"/>
<circle cx="732.436" cy="812.947" r="4"/>
<circle cx="734.348" cy="772.28" r="4"/>
<circle cx="736.26" cy="812.915" r="4"/>
<circle cx="738.172" cy="765.445" r="4"/>
<circle cx="740.084" cy="812.93" r="4"/>
<circle cx="741.996" cy="768.734" r="4"/>
<circle cx="743.908" cy="812.978" r="4"/>
<circle cx="745.82" cy="770.413" r="4"/>
<circle cx="747.732" cy="812.958" r="4"/>
<circle cx="749.644" cy="773.15" r="4"/>
<circle cx="751.556" cy="813.037" r="4"/>
<circle cx="753.468" cy="763.657" r="4"/>
<circle cx="755.38" cy="813.054" r="4"/>
<circle cx="757.292" cy="775.855" r="4"/>
<circle cx="759.204" cy="812.95" r="4"/>
<circle cx="761.116" cy="772.65" r="4"/>
<circle cx="763.028" cy="813.118" r="4"/>
<circle cx="764.94" cy="773.824" r="4"/>
<circle cx="766.852" cy="813.043" r="4"/>
<circle cx="768.764" cy="770.979" r="4"/>
<circle cx="770.676" cy="813.035" r="4"/>
<circle cx="772.588" cy="781.149" r="4"/>
<circle cx="774.5" cy="813.095" r="4"/>
<circle cx="776.412" cy="766.944" r="4"/>
<circle cx="778.324" cy="813.081" r="4"/>
<circle cx="780.236" cy="781.368" r="4"/>
<circle cx="782.148" cy="813.062" r="4"/>
<circle cx="784.06" cy="776.975" r="4"/>
<circle cx="785.972" cy="813.196" r="4"/>
<circle cx="787.884" cy="773.901" r="4"/>
<circle cx="789.796" cy="813.158" r="4"/>
<circle cx="791.708" cy="778.271" r="4"/>
<circle cx="793.62" cy="813.155" r="4"/>
<circle cx="795.532" cy="785.637" r="4"/>
<circle cx="797.444" cy="813.14" r="4"/>
<circle cx="799.356" cy="774.917" r="4"/>
<circle cx="801.268" cy="813.128" r="4"/>
<circle cx="803.18" cy="786.653" r="4"/>
<circle cx="805.092" cy="813.137" r="4"/>
<circle cx="807.004" cy="778.211" r="4"/>
<circle cx="808.916" cy="813.205" r="4"/>
<circle cx="810.828" cy="780.915" r="4"/>
<circle cx="812.74" cy="813.208" r="4"/>
<circle cx="814.652" cy="784.372" r="4"/>
<circle cx="816.564" cy="813.117" r="4"/>
<circle cx="818.476" cy="788.169" r="4"/>
<circle cx="820.388" cy="813.294" r="4"/>
<circle cx="822.3" cy="780.786" r="4"/>
<circle cx="824.212" cy="813.266" r="4"/>
<circle cx="826.124" cy="784.901" r="4"/>
<circle cx="828.036" cy="813.196" r="4"/>
<circle cx="829.948" cy="784.439" r="4"/>
<circle cx="831.86" cy="813.285" r="4"/>
<circle cx="833.772" cy="786.618" r="4"/>
<circle cx="835.684" cy="813.255" r="4"/>
<circle cx="837.596" cy="785.245" r="4"/>
<circle cx="839.508" cy="813.215" r="4"/>
<circle cx="841.42" cy="791.027" r="4"/>
<circle cx="843.332" cy="813.304" r="4"/>
<circle cx="845.244" cy="779.589" r="4"/>
<circle cx="847.156" cy="813.308" r="4"/>
<circle cx="849.068" cy="790.202" r="4"/>
<circle cx="850.98" cy="813.297" r="4"/>
<circle cx="852.892" cy="788.525" r="4"/>
<circle cx="854.804" cy="813.209" r="4"/>
<circle cx="856.716" cy="789.032" r="4"/>
<circle cx="858.628" cy="813.288" r="4"/>
<circle cx="860.54" cy="790.355" r="4"/>
<circle cx="862.452" cy="813.289" r="4"/>
<circle cx="864.364" cy="792.174" r="4"/>
<circle cx="866.276" cy="813.306" r="4"/>
<circle cx="868.188" cy="786.431" r="4"/>
<circle cx="870.1" cy="813.339" r="4"/>
<circle cx="872.012" cy="793.776" r="4"/>
<circle cx="873.924" cy="813.235" r="4"/>
<circle cx="875.836" cy="791.662" r="4"/>
<circle cx="877.748" cy="813.325" r="4"/>
<circle cx="879.66" cy="791.564" r="4"/>
<circle cx="881.572" cy="813.302" r="4"/>
<circle cx="883.484" cy="791.152" r="4"/>
<circle cx="885.396" cy="813.302" r="4"/>
<circle cx="887.308" cy="794.867" r="4"/>
<circle cx="889.22" cy="813.34" r="4"/>
<circle cx="891.132" cy="790.328" r="4"/>
<circle cx="893.044" cy="813.297" r="4"/>
<circle cx="894.956" cy="795.659" r="4"/>
<circle cx="896.868" cy="813.29" r="4"/>
<circle cx="898.78" cy="790.993" r="4"/>
<circle cx="900.692" cy="813.284" r="4"/>
<circle cx="902.604" cy="791.657" r="4"/>
<circle cx="904.516" cy="813.305" r="4"/>
<circle cx="906.428" cy="794.438" r="4"/>
<circle cx="908.34" cy="813.337" r="4"/>
<circle cx="910.252" cy="797.723" r="4"/>
<circle cx="912.164" cy="813.285" r="4"/>
<circle cx="914.076" cy="791.539" r="4"/>
<circle cx="915.988" cy="813.349" r="4"/>
<circle cx="917.9" cy="798.806" r="4"/>
<circle cx="919.812" cy="813.309" r="4"/>
<circle cx="921.724" cy="793.642" r="4"/>
<circle cx="923.636" cy="813.352" r="4"/>
<circle cx="925.548" cy="795.827" r="4"/>
<circle cx="927.46" cy="813.358" r="4"/>
<circle cx="929.372" cy="796.152" r="4"/>
<circle cx="931.284" cy="813.286" r="4"/>
<circle cx="933.196" cy="797.786" r="4"/>
<circle cx="935.108" cy="813.346" r="4"/>
<circle cx="937.02" cy="795.035" r="4"/>
<circle cx="938.932" cy="813.351" r="4"/>
<circle cx="940.844" cy="796.72" r="4"/>
<circle cx="942.756" cy="813.35" r="4"/>
<circle cx="944.668" cy="797.739" r="4"/>
<circle cx="946.58" cy="813.387" r="4"/>
<circle cx="948.492" cy="797.351" r="4"/>
<circle cx="950.404" cy="813.295" r="4"/>
<circle cx="952.316" cy="799.077" r="4"/>
<circle cx="954.228" cy="813.318" r="4"/>
<circle cx="956.14" cy="801.596" r="4"/>
<circle cx="958.052" cy="813.363" r="4"/>
<circle cx="959.964" cy="792.377" r="4"/>
<circle cx="961.876" cy="813.373" r="4"/>
<circle cx="963.788" cy="800.155" r="4"/>
<circle cx="965.7" cy="813.375" r="4"/>
<circle cx="967.612" cy="799.138" r="4"/>
<circle cx="969.524" cy="813.377" r="4"/>
<circle cx="971.436" cy="800.56" r="4"/>
<circle cx="973.348" cy="813.375" r="4"/>
<circle cx="975.26" cy="800.374" r="4"/>
<circle cx="977.172" cy="813.4" r="4"/>
<circle cx="979.084" cy="800.194" r="4"/>
<circle cx="980.996" cy="813.394" r="4"/>
<circle cx="982.908" cy="796.939" r="4"/>
<circle cx="984.82" cy="813.405" r="4"/>
<circle cx="986.732" cy="801.973" r="4"/>
<circle cx="988.644" cy="813.356" r="4"/>
<circle cx="990.556" cy="799.168" r="4"/>
<circle cx="992.468" cy="813.415" r="4"/>
<circle cx="994.38" cy="800.821" r="4"/>
<circle cx="996.292" cy="813.398" r="4"/>
<circle cx="998.204" cy="800.293" r="4"/>
<circle cx="1000.116" cy="813.336" r="4"/>
<circle cx="1002.028" cy="802.903" r="4"/>
<circle cx="1003.94" cy="813.391" r="4"/>
<circle cx="1005.852" cy="800.433" r="4"/>
<circle cx="1007.764" cy="813.377" r="4"/>
<circle cx="1009.676" cy="803.482" r="4"/>
<circle cx="1011.588" cy="813.4" r="4"/>
<circle cx="1013.5" cy="802.258" r="4"/>
<circle cx="1015.412" cy="813.433" r="4"/>
<circle cx="1017.324" cy="800.377" r="4"/>
<circle cx="1019.236" cy="813.415" r="4"/>
<circle cx="1021.148" cy="800.75" r="4"/>
<circle cx="1023.06" cy="813.439" r="4"/>
<circle cx="1024.972" cy="802.799" r="4"/>
<circle cx="1026.884" cy="813.418" r="4"/>
<circle cx="1028.796" cy="800.534" r="4"/>
<circle cx="1030.708" cy="813.4" r="4"/>
<circle cx="1032.62" cy="803.871" r="4"/>
<circle cx="1034.532" cy="813.411" r="4"/>
<circle cx="1036.444" cy="801.802" r="4"/>
<circle cx="1038.356" cy="813.418" r="4"/>
<circle cx="1040.268" cy="802.769" r="4"/>
<circle cx="1042.18" cy="813.422" r="4"/>
<circle cx="1044.092" cy="803.929" r="4"/>
<circle cx="1046.004" cy="813.41" r="4"/>
<circle cx="1047.916" cy="805.028" r="4"/>
<circle cx="1049.828" cy="813.408" r="4"/>
<circle cx="1051.74" cy="800.841" r="4"/>
<circle cx="1053.652" cy="813.412" r="4"/>
<circle cx="1055.564" cy="803.174" r="4"/>
<circle cx="1057.476" cy="813.429" r="4"/>
<circle cx="1059.388" cy="803.545" r="4"/>
<circle cx="1061.3" cy="813.432" r="4"/>
<circle cx="1063.212" cy="804.256" r="4"/>
<circle cx="1065.124" cy="813.419" r="4"/>
<circle cx="1067.036" cy="804.887" r="4"/>
<circle cx="1068.948" cy="813.418" r="4"/>
<circle cx="1070.86" cy="806.184" r="4"/>
<circle cx="1072.772" cy="813.438" r="4"/>
<circle cx="1074.684" cy="802.213" r="4"/>
<circle cx="1076.596" cy="813.452" r="4"/>
<circle cx="1078.508" cy="805.476" r="4"/>
<circle cx="1080.42" cy="813.418" r="4"/>
<circle cx="1082.332" cy="803.144" r="4"/>
<circle cx="1084.244" cy="813.445" r="4"/>
<circle cx="1086.156" cy="803.875" r="4"/>
<circle cx="1088.068" cy="813.434" r="4"/>
<circle cx="1089.98" cy="805.002" r="4"/>
<circle cx="1091.892" cy="813.456" r="4"/>
<circle cx="1093.804" cy="804.894" r="4"/>
<circle cx="1095.716" cy="813.457" r="4"/>
<circle cx="1097.628" cy="804.016" r="4"/>
<circle cx="1099.54" cy="813.415" r="4"/>
<circle cx="1101.452" cy="806.64" r="4"/>
<circle cx="1103.364" cy="813.431" r="4"/>
<circle cx="1105.276" cy="805.496" r="4"/>
<circle cx="1107.188" cy="813.428" r="4"/>
<circle cx="1109.1" cy="806.268" r="4"/>
<circle cx="1111.012" cy="813.429" r="4"/>
<circle cx="1112.924" cy="804.229" r="4"/>
<circle cx="1114.836" cy="813.418" r="4"/>
<circle cx="1116.748" cy="806.78" r="4"/>
<circle cx="1118.66" cy="813.436" r="4"/>
<circle cx="1120.572" cy="804.87" r="4"/>
<circle cx="1122.484" cy="813.435" r="4"/>
<circle cx="1124.396" cy="805.829" r="4"/>
<circle cx="1126.308" cy="813.432" r="4"/>
<circle cx="1128.22" cy="806.312" r="4"/>
<circle cx="1130.132" cy="813.454" r="4"/>
<circle cx="1132.044" cy="804.904" r="4"/>
<circle cx="1133.956" cy="813.441" r="4"/>
<circle cx="1135.868" cy="806.623" r="4"/>
<circle cx="1137.78" cy="813.437" r="4"/>
<circle cx="1139.692" cy="808.094" r="4"/>
<circle cx="1141.604" cy="813.437" r="4"/>
<circle cx="1143.516" cy="804.943" r="4"/>
<circle cx="1145.428" cy="813.454" r="4"/>
<circle cx="1147.34" cy="807.892" r="4"/>
<circle cx="1149.252" cy="813.428" r="4"/>
<circle cx="1151.164" cy="805.676" r="4"/>
<circle cx="1153.076" cy="813.453" r="4"/>
<circle cx="1154.988" cy="806.593" r="4"/>
<circle cx="1156.9" cy="813.453" r="4"/>
<circle cx="1158.812" cy="807.283" r="4"/>
<circle cx="1160.724" cy="813.447" r="4"/>
<circle cx="1162.636" cy="807.921" r="4"/>
<circle cx="1164.548" cy="813.455" r="4"/>
<circle cx="1166.46" cy="806.532" r="4"/>
<circle cx="1168.372" cy="813.46" r="4"/>
<circle cx="1170.284" cy="807.348" r="4"/>
<circle cx="1172.196" cy="813.457" r="4"/>
<circle cx="1174.108" cy="805.789" r="4"/>
<circle cx="1176.02" cy="813.463" r="4"/>
<circle cx="1177.932" cy="806.974" r="4"/>
<circle cx="1179.844" cy="813.457" r="4"/>
<circle cx="1181.756" cy="808.145" r="4"/>
<circle cx="1183.668" cy="813.46" r="4"/>
<circle cx="1185.58" cy="808.617" r="4"/>
<circle cx="1187.492" cy="813.465" r="4"/>
<circle cx="1189.404" cy="806.516" r="4"/>
<circle cx="1191.316" cy="813.443" r="4"/>
<circle cx="1193.228" cy="808.855" r="4"/>
<circle cx="1195.14" cy="813.46" r="4"/>
<circle cx="1197.052" cy="807.805" r="4"/>
<circle cx="1198.964" cy="813.431" r="4"/>
<circle cx="1200.876" cy="808.187" r="4"/>
<circle cx="1202.788" cy="813.464" r="4"/>
<circle cx="1204.7" cy="807.213" r="4"/>
<circle cx="1206.612" cy="813.451" r="4"/>
<circle cx="1208.524" cy="807.966" r="4"/>
<circle cx="1210.436" cy="813.47" r="4"/>
<circle cx="1212.348" cy="807.356" r="4"/>
<circle cx="1214.26" cy="813.471" r="4"/>
<circle cx="1216.172" cy="808.999" r="4"/>
<circle cx="1218.084" cy="813.452" r="4"/>
<circle cx="1219.996" cy="808.679" r="4"/>
<circle cx="1221.908" cy="813.471" r="4"/>
<circle cx="1223.82" cy="807.215" r="4"/>
<circle cx="1225.732" cy="813.467" r="4"/>
<circle cx="1227.644" cy="807.715" r="4"/>
<circle cx="1229.556" cy="813.466" r="4"/>
<circle cx="1231.468" cy="808.884" r="4"/>
<circle cx="1233.38" cy="813.472" r="4"/>
<circle cx="1235.292" cy="807.002" r="4"/>
<circle cx="1237.204" cy="813.454" r="4"/>
<circle cx="1239.116" cy="808.817" r="4"/>
<circle cx="1241.028" cy="813.464" r="4"/>
<circle cx="1242.94" cy="808.793" r="4"/>
<circle cx="1244.852" cy="813.478" r="4"/>
<circle cx="1246.764" cy="808.121" r="4"/>
<circle cx="1248.676" cy="813.465" r="4"/>
<circle cx="1250.588" cy="809.145" r="4"/>
<circle cx="1252.5" cy="813.46" r="4"/>
</g>
<text x="296.5" y="839.45" class="B C G">0</text>
<text x="487.7" y="839.45" class="B C G">100</text>
<text x="678.9" y="839.45" class="B C G">200</text>
<text x="870.1" y="839.45" class="B C G">300</text>
<text x="1061.3" y="839.45" class="B C G">400</text>
<text x="1252.5" y="839.45" class="B C G">500</text>
<text x="279" y="819.45" class="B C H">0</text>
<text x="279" y="664.2" class="B C H">200,000</text>
<text x="279" y="508.95" class="B C H">400,000</text>
<text x="279" y="353.7" class="B C H">600,000</text>
<text x="279" y="198.45" class="B C H">800,000</text>
<text x="774.5" y="880.279" class="B C G K">symbolic length of conclusion</text>
<text x="-503" y="181.45" transform="rotate(270)" class="B C G K">amount of minimal proofs for conclusions of specific length</text>
</svg>
